<?xml version="1.0" encoding="utf-8"?>
<!-- Generator: Adobe Illustrator 24.3.0, SVG Export Plug-In . SVG Version: 6.00 Build 0)  -->
<svg version="1.1" id="Layer_1" xmlns="http://www.w3.org/2000/svg" xmlns:xlink="http://www.w3.org/1999/xlink" x="0px" y="0px"
	 viewBox="0 0 65 62" style="enable-background:new 0 0 65 62;" xml:space="preserve">
<style type="text/css">
	.st0{fill:#E50914;}
</style>
<path class="st0" d="M46.7,0c-5.6,0-10.8,2.6-14.2,6.8C29.1,2.6,23.9,0,18.3,0C8.2,0,0,8.2,0,18.3c0,7.9,4.7,17.1,14.1,27.2
	c7.2,7.8,15,13.9,17.2,15.6l1.2,0.9l1.2-0.9c2.2-1.7,10-7.7,17.2-15.6C60.3,35.4,65,26.2,65,18.3C65,8.2,56.8,0,46.7,0z M48,42.8
	C42,49.3,35.6,54.6,32.5,57C29.4,54.6,23,49.3,17,42.8C8.5,33.5,4,25.1,4,18.3C4,10.4,10.4,4,18.3,4c5.2,0,9.9,2.8,12.5,7.4l1.8,3.2
	l1.8-3.2C36.8,6.8,41.6,4,46.7,4C54.6,4,61,10.4,61,18.3C61,25.1,56.5,33.5,48,42.8z"/>
</svg>
