<?xml version="1.0" encoding="utf-8"?>
<!-- Generator: Adobe Illustrator 24.3.0, SVG Export Plug-In . SVG Version: 6.00 Build 0)  -->
<svg version="1.1" id="Capa_1" xmlns="http://www.w3.org/2000/svg" xmlns:xlink="http://www.w3.org/1999/xlink" x="0px" y="0px"
	 viewBox="0 0 135.8 77.9" style="enable-background:new 0 0 135.8 77.9;" xml:space="preserve">
<style type="text/css">
	.st0{fill:#E50914;}
</style>
<path class="st0" d="M118.6,17.9c-0.5-0.7-1.3-1.1-2.1-1.1H88V2.5C88,1.2,86.9,0,85.5,0h-83C1.1,0,0,1.1,0,2.5l0,0V65
	c0,1.4,1.1,2.5,2.5,2.5h7.6c1.4,7,8.2,11.5,15.2,10c5.1-1,9-5,10-10H44c1.4,0,2.6-1.1,2.6-2.5s-1.1-2.6-2.5-2.6l0,0h-8.6
	c-1.4-7-8.2-11.5-15.1-10.1c-5.1,1-9.1,5-10.1,10.1H5.1V5.1h77.8v57.4H53.1c-1.4,0-2.5,1.1-2.5,2.6c0,1.4,1.1,2.5,2.5,2.5h37.7
	c1.4,7,8.2,11.5,15.2,10.1c5.1-1,9-5,10.1-10.1h17.2c1.4,0,2.6-1.1,2.6-2.6V44.2c0-0.5-0.2-1-0.4-1.4L118.6,17.9z M22.8,57.3
	c4.3,0,7.7,3.5,7.7,7.8s-3.5,7.7-7.8,7.7S15,69.3,15,65C15,60.8,18.5,57.3,22.8,57.3L22.8,57.3z M103.4,72.8c-4.3,0-7.8-3.5-7.8-7.8
	s3.5-7.8,7.8-7.8s7.8,3.5,7.8,7.8C111.1,69.3,107.7,72.8,103.4,72.8z M130.7,62.5H116c-1.4-7-8.2-11.5-15.2-10.1
	c-5.1,1-9,5-10.1,10.1H88V21.8h27.1L130.7,45V62.5z"/>
<path class="st0" d="M14,29.1h7.4c1.4,0,2.6-1.1,2.6-2.6c0-1.4-1.1-2.5-2.6-2.5H14c-1.4,0-2.6,1.1-2.6,2.5
	C11.4,28,12.6,29.1,14,29.1L14,29.1z"/>
<path class="st0" d="M74,24H30.1c-1.4,0-2.6,1.1-2.6,2.5s1.1,2.6,2.6,2.6H74c1.4,0,2.6-1.1,2.6-2.6C76.6,25.1,75.4,24,74,24z"/>
<path class="st0" d="M74,38.5h-7.4c-1.4,0-2.6,1.1-2.6,2.5s1.1,2.6,2.5,2.6l0,0H74c1.4,0,2.6-1.1,2.6-2.5
	C76.6,39.6,75.4,38.5,74,38.5L74,38.5z"/>
<path class="st0" d="M14,43.6h43.9c1.4,0,2.6-1.1,2.6-2.5s-1.1-2.6-2.5-2.6l0,0H14c-1.4,0-2.5,1.1-2.5,2.6
	C11.5,42.5,12.6,43.6,14,43.6z"/>
<path class="st0" d="M111.6,26.2H95.2c-1.4,0-2.6,1.1-2.6,2.5l0,0v13.8c0,1.4,1.1,2.5,2.6,2.5l0,0h25.7c1.4,0,2.6-1.1,2.6-2.5
	c0-0.5-0.2-1.1-0.5-1.5l-9.3-13.8C113.3,26.6,112.5,26.2,111.6,26.2z M97.8,40v-8.7h12.5l5.8,8.7H97.8z"/>
</svg>
