<svg xmlns="http://www.w3.org/2000/svg" viewBox="0 0 184.25 207.66"><defs><style>.cls-1{fill:#c52d2e;}.cls-2{fill:#fff;}</style></defs><g id="Capa_2" data-name="Capa 2"><path class="cls-1" d="M50.1,215.94c-3.17-1.07-6.53-1.77-9.47-3.28-11.42-5.87-17.23-15.45-17.26-28.23-.1-42.87,0-85.74,0-128.61v-6c-3.21,0-6.07,0-8.94,0-3.84,0-6.71-1.25-7-5.55-.28-3.78,2.14-5.92,7-5.95,12.3-.1,24.59,0,36.89,0h5c0-2.84,0-5.1,0-7.37C56.64,18.38,66,8.67,78.48,8.46q21-.36,42,0c12.46.21,21.84,9.92,22.17,22.44.06,2.27,0,4.53,0,7.37h11.48c10,0,20-.05,30,0,5.26,0,7.66,2.06,7.51,6-.14,3.67-2.58,5.48-7.51,5.54-2.31,0-4.61,0-6.92.06a12.7,12.7,0,0,0-1.56.32V178.44c0,22.38-5.95,30.72-26.77,37.5ZM34.69,50v5.52q0,62.91,0,125.83c0,15.68,7.49,23.22,23.12,23.23q41.73,0,83.45,0,23,0,23-22.93,0-63.37,0-126.75c0-1.61-.14-3.22-.22-4.9Zm96.1-12c2-13.07-2.27-18.22-14.93-18.22-11.36,0-22.73,0-34.09,0S65.32,26.79,68.36,38Z" transform="translate(-7.35 -8.28)"/><path class="cls-2" d="M130.79,38H68.35c-3-11.21,2.07-18.17,13.42-18.21s22.73,0,34.09,0C128.52,19.78,132.81,24.93,130.79,38Z" transform="translate(-7.35 -8.28)"/><path class="cls-1" d="M93.68,126.91c0-16,0-31.95,0-47.93,0-2,.08-4.27,1.11-5.73s3.34-2.73,4.9-2.53c1.76.22,3.76,1.89,4.79,3.49.88,1.38.71,3.54.71,5.36q0,47.48,0,95c0,.92,0,1.84,0,2.76-.27,3.64-1.81,6.38-5.81,6.34s-5.63-2.86-5.68-6.47c-.13-8,0-16,0-24Q93.67,140,93.68,126.91Z" transform="translate(-7.35 -8.28)"/><path class="cls-1" d="M56.29,126.92q0-21,0-41.95c0-5.61,1.92-8.31,5.72-8.18s5.61,2.9,5.61,8.49q0,41.72,0,83.43c0,.92.06,1.85,0,2.76-.35,3.53-2.08,5.84-5.85,5.73s-5.43-2.42-5.44-6q0-22.12,0-44.25Z" transform="translate(-7.35 -8.28)"/><path class="cls-1" d="M142.64,127.39q0,21.2,0,42.4c0,5.09-1.75,7.38-5.45,7.45-3.93.07-5.87-2.36-5.87-7.61q0-42.65,0-85.28c0-4.72,2.1-7.45,5.6-7.56,3.7-.12,5.71,2.53,5.72,7.73Q142.68,106,142.64,127.39Z" transform="translate(-7.35 -8.28)"/></g></svg>