<?xml version="1.0" encoding="utf-8"?>
<!-- Generator: Adobe Illustrator 24.3.0, SVG Export Plug-In . SVG Version: 6.00 Build 0)  -->
<svg version="1.1" id="Capa_2_1_" xmlns="http://www.w3.org/2000/svg" xmlns:xlink="http://www.w3.org/1999/xlink" x="0px" y="0px"
	 viewBox="0 0 85 85.2" style="enable-background:new 0 0 85 85.2;" xml:space="preserve">
<style type="text/css">
	.st0{fill:#DADADA;}
	.st1{fill-rule:evenodd;clip-rule:evenodd;fill:#E50914;}
</style>
<circle class="st0" cx="42.5" cy="42.6" r="42.5"/>
<path class="st1" d="M54.6,14.4H30.4c-9,0-16.3,7.3-16.3,16.3v24.2c0,9,7.3,16.3,16.3,16.3h24.2c9,0,16.3-7.3,16.3-16.3V30.6
	C70.8,21.6,63.6,14.4,54.6,14.4z M65.9,54c0,6.6-5.4,12-12,12H31.1c-6.6,0-12-5.4-12-12V31.2c0-6.6,5.4-12,12-12h22.8
	c6.6,0,12,5.4,12,12V54z"/>
<path class="st1" d="M42.5,28.1c-8,0-14.6,6.5-14.6,14.6c0,8,6.5,14.6,14.6,14.6s14.6-6.5,14.6-14.6S50.6,28.1,42.5,28.1z
	 M42.5,52.3c-5.3,0-9.6-4.3-9.6-9.6s4.3-9.6,9.6-9.6s9.6,4.3,9.6,9.6S47.8,52.3,42.5,52.3z"/>
<ellipse class="st1" cx="57.5" cy="27.5" rx="3.6" ry="3.6"/>
</svg>
