<svg id="Capa_1" data-name="Capa 1" xmlns="http://www.w3.org/2000/svg" viewBox="0 0 184.25 197.34"><defs><style>.cls-1{fill:#c52d2e;}</style></defs><path class="cls-1" d="M21.84,35.19H20.32c-4.42,0-8.84.06-13.27,0A7,7,0,0,1,.31,26.1a6.9,6.9,0,0,1,6-4.91c.61-.06,1.22-.06,1.84-.06H46v-1.4c0-2.77-.15-5.55.08-8.3C46.53,6.05,50.56,1.79,56.18.5A17.13,17.13,0,0,1,60,0c21.92,0,43.84-.08,65.76,0,5.66,0,10.24,2.45,12.69,7.82a13.87,13.87,0,0,1,.95,4.81c.15,2.46.07,4.92,0,7.39,0,.84.22,1.13,1.1,1.12q12.75,0,25.5,0c3.69,0,7.38,0,11.07,0a7,7,0,1,1,.05,14.09c-4,0-8,0-12,0h-1.42v80.11q0,33.92,0,67.83a14,14,0,0,1-14.07,14.08q-47.25,0-94.49,0c-6.38,0-12.77,0-19.15,0a14,14,0,0,1-13.81-11.17,15.65,15.65,0,0,1-.28-3.21q0-68.7,0-137.4Zm127.75,74.22h-.08V43a17.83,17.83,0,0,0-.12-2.07,5.54,5.54,0,0,0-2.74-4.31,9.76,9.76,0,0,0-5.2-1.29h-17q-30,0-60.1,0-11.3,0-22.61-.1a5.23,5.23,0,0,0-5.47,4,10.92,10.92,0,0,0-.38,2.84q0,17.78,0,35.53v98.06c0,5.21,2.78,8,8,8l83.75-.27c4.85,0,9.69,0,14.53-.11s7.45-2.87,7.45-7.53Q149.6,142.57,149.59,109.41ZM60.2,14.21v7h46.22c6,0,11.92,0,17.88,0,.86,0,1.06-.31,1-1.08s0-1.77,0-2.65V14.21Z"/><path class="cls-1" d="M66.55,109.24q0,26.6,0,53.18a7,7,0,0,1-13.73,2.11,8.79,8.79,0,0,1-.34-2.39q0-53,0-106a7,7,0,1,1,14.08-.29c0,7.35,0,14.69,0,22v31.38Z"/><path class="cls-1" d="M118.85,109.06q0-26.36,0-52.72c0-4,2.2-6.81,5.91-7.49a7,7,0,0,1,8,5.61,13.25,13.25,0,0,1,.16,2.18q0,52.2,0,104.4a11.79,11.79,0,0,1-.7,4.39,6.84,6.84,0,0,1-7.79,3.94,7,7,0,0,1-5.54-6.66c-.07-5.46,0-10.92,0-16.38V109.06Z"/><path class="cls-1" d="M99.78,109.19V162c0,4.23-3,7.44-7,7.5s-7.13-3.16-7.13-7.45q0-44.18,0-88.36c0-5.93,0-11.85,0-17.77a7,7,0,1,1,14.08-.06c0,8.81,0,17.61,0,26.42S99.78,100.23,99.78,109.19Z"/></svg>