<?xml version="1.0" encoding="utf-8"?>
<!-- Generator: Adobe Illustrator 24.3.0, SVG Export Plug-In . SVG Version: 6.00 Build 0)  -->
<svg version="1.1" id="Capa_1" xmlns="http://www.w3.org/2000/svg" xmlns:xlink="http://www.w3.org/1999/xlink" x="0px" y="0px"
	 viewBox="0 0 20 20" style="enable-background:new 0 0 20 20;" xml:space="preserve">
<style type="text/css">
	.st0{fill:#5F6368;}
</style>
<path class="st0" d="M13.5,12h-0.8l-0.3-0.3c1-1.2,1.6-2.7,1.6-4.2C14,3.9,11.1,1,7.5,1S1,3.9,1,7.5S3.9,14,7.5,14
	c1.6,0,3.1-0.6,4.2-1.6l0.3,0.3v0.8l5,5l1.5-1.5L13.5,12z M7.5,12C5,12,3,10,3,7.5S5,3,7.5,3S12,5,12,7.5S10,12,7.5,12z"/>
</svg>
