<?xml version="1.0" encoding="utf-8"?>
<!-- Generator: Adobe Illustrator 24.3.0, SVG Export Plug-In . SVG Version: 6.00 Build 0)  -->
<svg version="1.1" id="Capa_1" xmlns="http://www.w3.org/2000/svg" xmlns:xlink="http://www.w3.org/1999/xlink" x="0px" y="0px"
	 viewBox="0 0 65 64.9" style="enable-background:new 0 0 65 64.9;" xml:space="preserve">
<style type="text/css">
	.st0{fill:#E50914;}
</style>
<g>
	<g>
		<g>
			<path class="st0" d="M64.5,23.3L57.3,4.4c-1.4-3.6-5.4-5.3-9-4c-0.1,0-0.1,0-0.2,0.1l-36.3,15c-3.5,1.4-5.2,5.3-3.8,8.8L9,27H6.8
				C3.1,27,0,30,0,33.8v24.4C0,61.9,3,65,6.8,65h46c3.7,0,6.8-3,6.8-6.8V33.8c0-0.4,0-0.7-0.1-1.1l1.3-0.5
				C64.2,30.8,65.9,26.8,64.5,23.3z M6.8,29.2h46c2.4,0,4.4,1.9,4.6,4.3H2.2C2.3,31.1,4.3,29.2,6.8,29.2z M17.6,22.7l7.2-3.6
				l1.5,3.7l-7.2,3.6L17.6,22.7z M57.4,58.2c0,2.5-2.1,4.6-4.6,4.6h-46c-2.5,0-4.6-2.1-4.6-4.6V44.4h55.2
				C57.4,44.4,57.4,58.2,57.4,58.2z M57.4,42.2H2.2v-6.5h55.2V42.2z M59.9,30.2l-1.1,0.5c-1.2-2.2-3.5-3.6-6-3.6H22.7l5.5-2.8
				c0.5-0.3,0.7-0.8,0.5-1.4l-2.3-5.7c-0.2-0.6-0.9-0.8-1.4-0.6h-0.1l-9.2,4.6c-0.5,0.3-0.7,0.8-0.5,1.4l1.8,4.5h-5.7L10,23.7
				c-0.9-2.4,0.3-5.1,2.6-6.1L49,2.5c2.4-1,5.2,0.1,6.2,2.6v0.1l7.3,18.9C63.4,26.5,62.3,29.2,59.9,30.2z"/>
			<path class="st0" d="M38.9,59.7c2,1.2,4.5,1.2,6.5,0c3.1,1.8,7.1,0.7,8.9-2.4s0.7-7.1-2.4-8.9c-1-0.6-2.1-0.9-3.3-0.9
				c-1.1,0-2.3,0.3-3.2,0.9c-3.1-1.8-7.1-0.7-8.9,2.4C34.8,54,35.8,57.9,38.9,59.7z M47.3,50c0.5-0.2,0.9-0.3,1.4-0.3
				c2.4,0,4.3,1.9,4.3,4.3s-1.9,4.3-4.3,4.3c-0.5,0-1-0.1-1.4-0.3C49.2,55.8,49.2,52.4,47.3,50z M45.5,51.3c1.4,1.6,1.4,4.1,0,5.7
				C44,55.3,44,52.9,45.5,51.3z M42.2,49.8c0.5,0,1,0.1,1.4,0.3c-1.9,2.4-1.9,5.8,0,8.1c-0.5,0.2-0.9,0.3-1.4,0.3
				c-2.4,0-4.3-1.9-4.3-4.3C37.9,51.7,39.8,49.8,42.2,49.8z"/>
			
				<rect x="45.6" y="19.9" transform="matrix(0.9138 -0.4062 0.4062 0.9138 -4.1142 22.6239)" class="st0" width="11.3" height="2.2"/>
			
				<rect x="38.5" y="16.5" transform="matrix(0.908 -0.4191 0.4191 0.908 -3.0706 21.1918)" class="st0" width="16.4" height="2.2"/>
		</g>
	</g>
</g>
</svg>
