<?xml version="1.0" encoding="iso-8859-1"?>
<!-- Generator: Adobe Illustrator 19.1.0, SVG Export Plug-In . SVG Version: 6.00 Build 0)  -->
<svg version="1.1" id="iOS_adobeContact_72_lt-ou"
	 xmlns="http://www.w3.org/2000/svg" xmlns:xlink="http://www.w3.org/1999/xlink" x="0px" y="0px"  width="72" height="72"
	 viewBox="0 0 72 72"
	 enable-background="new 0 0 72 72" xml:space="preserve">
<path fill="#4B4B4B" d="M63,29.2V28c0-3.3137-2.6863-6-6-6h-3c0-11.5979-7.5-18-18-18c-10.4062,0-18,6.4021-18,18h-3
	c-3.3137,0-6,2.6863-6,6v1.2101C5.8901,29.3164,3.4,31.8643,3.4,35s2.4901,5.6836,5.6,5.7899V42c0,3.3137,2.6863,6,6,6h7V22h-2.3
	C19.7,11.9094,26,5.7083,36,5.7001C45.9583,5.6918,52.3,11.9094,52.3,22H50v26h2v5c0,4.3999-3.6,8-8,8h-2.09
	c-0.477-2.8367-2.9378-5-5.91-5c-3.3137,0-6,2.6863-6,6s2.6863,6,6,6c2.9722,0,5.433-2.1633,5.91-5H44c5.5228,0,10-4.4772,10-10v-5
	h3c3.3137,0,6-2.6863,6-6v-1.2c3.2032,0,5.8-2.5968,5.8-5.8S66.2032,29.2,63,29.2z M5.2,35c0-2.1406,1.6858-3.8735,3.8-3.9799
	v7.9597C6.8858,38.8735,5.2,37.1406,5.2,35z M20,24v22h-5c-2.2092,0-4-1.7909-4-4V28c0-2.2092,1.7908-4,4-4H20z M36,66
	c-2.2092,0-4-1.7909-4-4c0-2.2092,1.7908-4,4-4s4,1.7908,4,4C40,64.2091,38.2092,66,36,66z M61,42c0,2.2091-1.7908,4-4,4h-5V24h5
	c2.2092,0,4,1.7908,4,4V42z M63,39v-8c2.2092,0,4,1.7908,4,4C67,37.2091,65.2092,39,63,39z"/>
</svg>