<svg id="Capa_1" data-name="Capa 1" xmlns="http://www.w3.org/2000/svg" viewBox="0 0 18 18"><defs><style>.cls-1{fill:#e50914;}</style></defs><path class="cls-1" d="M16.3,3.62A8.83,8.83,0,0,0,10,1,8.93,8.93,0,0,0,2.27,14.38L1,19l4.73-1.24A8.9,8.9,0,0,0,10,18.84h0a9,9,0,0,0,9-8.92A8.9,8.9,0,0,0,16.3,3.62ZM10,17.34a7.45,7.45,0,0,1-3.78-1L6,16.15l-2.8.73.74-2.73-.17-.28A7.42,7.42,0,0,1,15.24,4.68a7.4,7.4,0,0,1,2.25,5.24A7.5,7.5,0,0,1,10,17.34Zm4.06-5.55c-.22-.11-1.32-.65-1.52-.73s-.35-.11-.5.12-.58.72-.71.87-.26.17-.48.06a6.14,6.14,0,0,1-3-2.65c-.22-.4.23-.37.66-1.22a.41.41,0,0,0,0-.39C8.39,7.74,8,6.64,7.76,6.2s-.36-.38-.5-.39H6.83a.81.81,0,0,0-.59.27,2.51,2.51,0,0,0-.78,1.86,4.36,4.36,0,0,0,.91,2.31,9.93,9.93,0,0,0,3.81,3.37,4.29,4.29,0,0,0,2.67.55,2.27,2.27,0,0,0,1.51-1.06,1.83,1.83,0,0,0,.12-1.06C14.43,12,14.28,11.9,14.06,11.79Z" transform="translate(-1 -1)"/></svg>