<?xml version="1.0" encoding="utf-8"?>
<!-- Generator: Adobe Illustrator 25.2.1, SVG Export Plug-In . SVG Version: 6.00 Build 0)  -->
<svg version="1.1" id="Capa_1" xmlns="http://www.w3.org/2000/svg" xmlns:xlink="http://www.w3.org/1999/xlink" x="0px" y="0px"
	 viewBox="0 0 28 28" style="enable-background:new 0 0 28 28;" xml:space="preserve">
<style type="text/css">
	.st0{fill:#FFFFFF;stroke:#868686;stroke-width:0.5;stroke-miterlimit:10;}
	.st1{fill:#E50914;}
</style>
<circle class="st0" cx="14" cy="14" r="12.8"/>
<path class="st1" d="M3.5,16.4c0-0.1,0.2-0.2,0.3-0.1c0,0,0,0,0.1,0c0.4,0.2,0.7,0.4,1.1,0.6c1.4,0.7,2.9,1.2,4.4,1.6
	c0.7,0.2,1.4,0.3,2.2,0.4c1.1,0.1,2.2,0.2,3.3,0.2c0.6,0,1.2-0.1,1.8-0.1c1.9-0.2,3.8-0.7,5.6-1.5c0.1,0,0.2,0,0.3,0
	c0.2,0,0.2,0.2,0.2,0.3c0,0.1,0,0.1-0.1,0.1c-0.1,0.1-0.2,0.2-0.3,0.3c-1.1,0.7-2.2,1.3-3.4,1.6c-0.8,0.3-1.7,0.5-2.6,0.6
	c-0.6,0.1-1.2,0.1-1.8,0.2h-0.9h-0.4c-0.6-0.1-1.1-0.2-1.7-0.3c-0.9-0.2-1.9-0.4-2.8-0.7c-1.8-0.7-3.5-1.7-5-3
	C3.6,16.6,3.6,16.5,3.5,16.4L3.5,16.4z M8.9,7.5H8.8C8.3,7.5,7.9,7.7,7.5,8L7.2,8.2c0,0,0,0,0-0.1s0-0.2,0-0.3S7.1,7.6,7,7.6H6.5
	c-0.2,0-0.3,0-0.3,0.3v7.3c0,0.1,0.1,0.2,0.2,0.2l0,0h0.7c0.1,0,0.2-0.1,0.2-0.2l0,0c0,0,0-0.1,0-0.1v-2.5l0.1,0.1
	c0.6,0.5,1.3,0.7,2.1,0.5c0.7-0.1,1.2-0.6,1.5-1.2c0.2-0.5,0.3-1,0.4-1.5c0-0.6-0.1-1.2-0.3-1.7c-0.2-0.7-0.8-1.1-1.5-1.3l-0.3,0
	L8.9,7.5z M7.3,8.9c0,0,0-0.1,0.1-0.1c0.4-0.3,1-0.5,1.6-0.5c0.5,0,1,0.4,1.2,0.9c0.1,0.4,0.2,0.7,0.2,1.1c0,0.4,0,0.7-0.1,1.1
	c-0.2,0.6-0.8,1.1-1.5,1c-0.5,0-0.9-0.2-1.3-0.5c0,0-0.1-0.1-0.1-0.1V8.9z M14.4,7.5h-0.1c-0.3,0-0.7,0.1-1,0.1
	c-0.2,0.1-0.4,0.1-0.6,0.2c-0.1,0-0.2,0.1-0.2,0.3v0.3c0,0.2,0.1,0.2,0.2,0.2c0.2,0,0.5-0.1,0.8-0.2c0.4-0.1,0.9-0.1,1.3,0
	c0.2,0,0.4,0.1,0.6,0.3c0.1,0.2,0.2,0.4,0.2,0.6c0,0.3,0,0.6,0,0.8l0,0l0,0c-0.4-0.1-0.7-0.1-1.1-0.2c-0.4,0-0.8,0-1.1,0.1
	c-0.4,0.1-0.8,0.4-1,0.8c-0.2,0.3-0.2,0.7-0.2,1.1c0.1,0.5,0.3,0.9,0.7,1.1c0.4,0.2,0.9,0.3,1.3,0.2c0.5-0.1,1-0.3,1.4-0.6
	c0,0,0,0,0.1,0l0.1,0.3c0,0.1,0.1,0.2,0.2,0.2h0.6c0.1,0,0.2-0.1,0.2-0.2c0,0,0,0,0,0V9.2c0-0.1,0-0.3,0-0.4c0-0.4-0.3-0.8-0.7-1
	c-0.2-0.1-0.5-0.2-0.7-0.2h-0.4L14.4,7.5z M15.6,11.8c0,0,0,0.1-0.1,0.1c-0.4,0.3-0.8,0.5-1.3,0.5c-0.2,0-0.4,0-0.6-0.1
	c-0.2-0.1-0.4-0.3-0.4-0.5c-0.1-0.2-0.1-0.4,0-0.7c0.1-0.3,0.3-0.5,0.6-0.5c0.3-0.1,0.6-0.1,0.8-0.1c0.3,0,0.6,0.1,0.8,0.1
	c0.1,0,0.1,0,0.1,0.1C15.6,10.9,15.6,11.8,15.6,11.8z M24.5,16.3c0-0.2-0.2-0.2-0.3-0.3c-0.2-0.1-0.5-0.1-0.7-0.1
	c-0.5,0-0.9,0-1.3,0.1c-0.5,0.1-1,0.3-1.4,0.5c-0.1,0-0.1,0.1-0.1,0.1c0,0,0,0.1,0,0.1c0,0,0.1,0.1,0.1,0.1h0.1l0.8-0.1
	c0.4,0,0.8,0,1.2,0c0.2,0,0.3,0,0.5,0.1c0.2,0,0.3,0.2,0.3,0.4c0,0.3,0,0.5-0.1,0.8c-0.1,0.5-0.3,1-0.5,1.6c0,0,0,0.1,0,0.1
	c0,0.1,0,0.2,0.1,0.1c0.1,0,0.1,0,0.2-0.1c0.1-0.1,0.3-0.3,0.4-0.5c0.4-0.6,0.7-1.2,0.8-1.9c0-0.1,0.1-0.2,0.1-0.4L24.5,16.3z
	 M19.9,12l-1.3-3.7c-0.1-0.2-0.1-0.4-0.2-0.6c0-0.1-0.1-0.2-0.2-0.2h-0.8c-0.1,0-0.1,0.1-0.1,0.2c0,0.1,0,0.1,0.1,0.2
	c0.7,1.7,1.3,3.3,2,5c0.1,0.1,0.1,0.3,0,0.4c-0.1,0.2-0.2,0.5-0.3,0.8c-0.1,0.2-0.3,0.4-0.5,0.5c-0.2,0-0.4,0-0.5,0h-0.3
	c-0.1,0-0.2,0-0.2,0.2v0.3c0,0.2,0.1,0.3,0.3,0.3c0.2,0,0.4,0.1,0.6,0.1c0.6,0,1.1-0.3,1.3-0.7c0.1-0.2,0.2-0.4,0.3-0.6
	c0.8-2.1,1.6-4.1,2.4-6.2c0-0.1,0-0.1,0.1-0.2c0-0.1,0-0.1-0.1-0.1h-0.7c-0.1,0-0.2,0.1-0.3,0.2l-0.1,0.1l-1.2,3.4L19.9,12L19.9,12z
	"/>
</svg>
