<?xml version="1.0" encoding="utf-8"?>
<!-- Generator: Adobe Illustrator 25.2.1, SVG Export Plug-In . SVG Version: 6.00 Build 0)  -->
<svg version="1.1" id="Capa_1" xmlns="http://www.w3.org/2000/svg" xmlns:xlink="http://www.w3.org/1999/xlink" x="0px" y="0px"
	 viewBox="0 0 28 28" style="enable-background:new 0 0 28 28;" xml:space="preserve">
<style type="text/css">
	.st0{fill:#FFFFFF;stroke:#868686;stroke-width:0.5;stroke-miterlimit:10;}
	.st1{fill:#E50914;}
</style>
<circle class="st0" cx="14" cy="14" r="12.8"/>
<path class="st1" d="M7.4,10.8c-0.3,0.3-0.6,0.5-1,0.5c0-0.4,0.1-0.8,0.4-1.1c0.3-0.3,0.6-0.5,1-0.5C7.7,10.1,7.6,10.5,7.4,10.8
	 M7.7,11.4c-0.6,0-1.1,0.3-1.3,0.3c-0.3,0-0.7-0.3-1.1-0.3c-0.6,0-1.1,0.3-1.4,0.9c-0.5,1.2-0.3,2.5,0.4,3.5
	c0.3,0.4,0.6,0.9,1.1,0.9s0.6-0.3,1.1-0.3s0.7,0.3,1.1,0.3c0.5,0,0.8-0.4,1.1-0.9c0.2-0.3,0.4-0.6,0.5-1c-0.6-0.2-0.9-0.8-0.9-1.4
	c0-0.5,0.3-1,0.8-1.3C8.7,11.6,8.2,11.4,7.7,11.4 M11,10.1v6.5h1v-2.2h1.4c1.1,0.1,2.1-0.8,2.1-1.9c0-0.1,0-0.1,0-0.2
	c0.1-1.1-0.8-2.1-1.9-2.1c-0.1,0-0.2,0-0.2,0H11z M12,11.1h1.1c0.6-0.1,1.3,0.4,1.3,1c0,0.1,0,0.2,0,0.3c0.1,0.7-0.4,1.2-1.1,1.3
	c-0.1,0-0.2,0-0.3,0H12V11.1z M17.3,16.6c0.6,0,1.2-0.3,1.5-0.8l0,0v0.8h0.9v-3.2c0-0.9-0.7-1.5-1.9-1.5c-0.9-0.1-1.7,0.5-1.9,1.4
	h0.9c0.1-0.4,0.5-0.7,0.9-0.7c0.6,0,0.9,0.3,0.9,0.8v0.4h-1.2c-1.2,0.1-1.8,0.5-1.8,1.4c0,0.8,0.6,1.4,1.4,1.4
	C17.2,16.6,17.3,16.6,17.3,16.6z M17.6,15.9c-0.5,0-0.9-0.3-0.9-0.6s0.3-0.6,0.9-0.7l1.1-0.1v0.4C18.7,15.4,18.2,15.9,17.6,15.9
	C17.6,15.9,17.6,15.9,17.6,15.9L17.6,15.9z M20.9,18.3c1,0,1.4-0.4,1.9-1.5l1.7-4.9h-1l-1.2,3.8l0,0l-1.2-3.8h-1.1l1.7,4.6l-0.1,0.3
	c-0.1,0.4-0.4,0.7-0.8,0.7h-0.3v0.8C20.7,18.3,20.8,18.3,20.9,18.3L20.9,18.3z"/>
</svg>
