<?xml version="1.0" encoding="utf-8"?>
<!-- Generator: Adobe Illustrator 25.2.1, SVG Export Plug-In . SVG Version: 6.00 Build 0)  -->
<svg version="1.1" id="Capa_1" xmlns="http://www.w3.org/2000/svg" xmlns:xlink="http://www.w3.org/1999/xlink" x="0px" y="0px"
	 viewBox="0 0 48 48" style="enable-background:new 0 0 48 48;" xml:space="preserve">
<style type="text/css">
	.st0{fill:#E50914;}
</style>
<path class="st0" d="M20,15.5h16v-3H20V15.5z M20,21.5h16v-3H20V21.5z M20,27.5h10v-3H20V27.5z M14.1,16c0.6,0,1-0.2,1.4-0.6
	c0.4-0.4,0.6-0.9,0.6-1.4s-0.2-1-0.6-1.4S14.6,12,14.1,12c-0.6,0-1,0.2-1.4,0.6s-0.6,0.9-0.6,1.4c0,0.6,0.2,1,0.6,1.4
	S13.5,16,14.1,16z M14.1,22c0.6,0,1-0.2,1.4-0.6c0.4-0.4,0.6-0.9,0.6-1.4c0-0.6-0.2-1-0.6-1.4S14.6,18,14.1,18c-0.6,0-1,0.2-1.4,0.6
	s-0.6,0.9-0.6,1.4c0,0.6,0.2,1,0.6,1.4S13.5,22,14.1,22z M14.1,28c0.6,0,1-0.2,1.4-0.6c0.4-0.4,0.6-0.9,0.6-1.4c0-0.6-0.2-1-0.6-1.4
	c-0.4-0.4-0.9-0.6-1.4-0.6c-0.6,0-1,0.2-1.4,0.6s-0.6,0.9-0.6,1.4c0,0.6,0.2,1,0.6,1.4S13.5,28,14.1,28z M4,44V7
	c0-0.8,0.3-1.5,0.9-2.1S6.2,4,7,4h34c0.8,0,1.5,0.3,2.1,0.9C43.7,5.5,44,6.2,44,7v26c0,0.8-0.3,1.5-0.9,2.1C42.5,35.7,41.8,36,41,36
	H12L4,44z M7,36.8l3.8-3.8H41V7H7V36.8z M7,7v29.8V7z"/>
</svg>
