<?xml version="1.0" encoding="utf-8"?>
<!-- Generator: Adobe Illustrator 25.2.1, SVG Export Plug-In . SVG Version: 6.00 Build 0)  -->
<svg version="1.1" id="Capa_1" xmlns="http://www.w3.org/2000/svg" xmlns:xlink="http://www.w3.org/1999/xlink" x="0px" y="0px"
	 viewBox="0 0 27.5 28" style="enable-background:new 0 0 27.5 28;" xml:space="preserve">
<style type="text/css">
	.st0{fill:#E50914;}
</style>
<path class="st0" d="M3.5,14c0,1,0.4,1.9,1,2.6l-1.1,0.7l-0.6,0.4c-0.8-1-1.3-2.3-1.3-3.7c0-3.3,2.7-6,6-6h9V5l6,4l-6,4v-3h-9
	C5.3,10,3.5,11.8,3.5,14z M24.2,10.3l-0.6,0.4l-1.1,0.7c0.6,0.7,1,1.6,1,2.6c0,2.2-1.8,4-4,4h-9v-3l-6,4l6,4v-3h9c3.3,0,6-2.7,6-6
	C25.5,12.6,25.1,11.3,24.2,10.3z"/>
</svg>
