<?xml version="1.0" encoding="utf-8"?>
<!-- Generator: Adobe Illustrator 24.3.0, SVG Export Plug-In . SVG Version: 6.00 Build 0)  -->
<svg version="1.1" id="Capa_1" xmlns="http://www.w3.org/2000/svg" xmlns:xlink="http://www.w3.org/1999/xlink" x="0px" y="0px"
	 viewBox="0 0 25 25.4" style="enable-background:new 0 0 25 25.4;" xml:space="preserve">
<style type="text/css">
	.st0{fill:none;stroke:#E50914;stroke-width:0.9921;stroke-linecap:round;stroke-linejoin:round;}
</style>
<path class="st0" d="M0.5,23.9c0,0-0.3-3,1.7-3c0,0,2.2-0.2,2.2,3V20c0.1-0.9,0.8-1.5,1.7-1.5c0,0,0.1,0,0.1,0c2,0,2,1.5,2,1.5v3.9"
	/>
<path class="st0" d="M8.2,20l0-10.4C8.3,8.7,9,8,9.9,8c0,0,0.1,0,0.1,0c2,0,2,1.5,2,1.5c0,0.2,0.1,14.4,0.1,14.4"/>
<path class="st0" d="M13.6,0.5c-0.9,2-1.9,2.5-2.7,4s0.2,2.6,2.8,3.8c0,0-1.1,1-1.6,1c0,0.5,0.3,0.9,0.6,1.2l2.2,1.5h0.9"/>
<path class="st0" d="M11.6,7.1c0.2-0.5,0.6-0.9,1.1-0.9c0.9,0.2,1.8,0.6,2.6,1.2"/>
<path class="st0" d="M15.8,5.5c0,0,1.3-0.2,1.4,1.7"/>
<path class="st0" d="M14.8,12c0,0-1.8,1.5-1.8,2.3c0,0.2,0.1,0.5,0.2,0.7c0.2,0.3,0.6,0.4,0.9,0.3c0,0,0,0,0.1,0
	c0.3-0.2,0.6-0.2,0.9-0.2c0.4,0.3,0.7,0.7,0.7,1.2c-0.2,1.2,0,2.4,0.5,3.5c0.5,0.6,1.2,0.9,2,0.8c2.1-0.2,4.1-0.6,6.1-1"/>
</svg>
