<?xml version="1.0" encoding="utf-8"?>
<!-- Generator: Adobe Illustrator 25.2.1, SVG Export Plug-In . SVG Version: 6.00 Build 0)  -->
<svg version="1.1" id="Capa_1" xmlns="http://www.w3.org/2000/svg" xmlns:xlink="http://www.w3.org/1999/xlink" x="0px" y="0px"
	 viewBox="0 0 28.3 28.3" style="enable-background:new 0 0 28.3 28.3;" xml:space="preserve">
<style type="text/css">
	.st0{fill:#FFFFFF;stroke:#868686;stroke-width:0.5;stroke-miterlimit:10;}
	.st1{fill-rule:evenodd;clip-rule:evenodd;fill:#E50914;}
</style>
<ellipse class="st0" cx="14.2" cy="14.2" rx="12.8" ry="12.8"/>
<path class="st1" d="M15.5,22.5c-0.4,0.3-3.1,0.1-3.5,0.1c-0.3-0.2-0.2-5.4-0.2-7.7c0-0.3,0.1-0.4-0.1-0.6c-0.5-0.1-1,0.1-1.5-0.2
	c0-0.8,0-1.6,0-2.4c0-0.3,0.1-0.4,0.4-0.4s0.6,0,0.9,0c0.2,0,0.3,0,0.3-0.3c-0.1-0.9-0.1-1.8,0-2.7c0.1-0.2,0.1-0.4,0.2-0.6
	c0.3-1.2,1.3-2,2.6-2.1c1.2,0,2.2,0.1,3.3,0c0.3,0,0.3,0,0.3,0.3c0,0.8,0,1.7,0,2.5c0,0.1-0.1,0.2-0.2,0.3c-0.7,0.1-1.4,0.2-2.1,0.1
	c-0.3,0.1-0.4,0.3-0.4,0.5v2c0.6,0.2,1.3,0.2,1.8,0.1c0.8,0,0.8,0,0.7,0.8c0,0.7-0.2,1.4-0.3,2.1c-0.7,0.1-1.4,0.1-2.1,0.1
	c-0.2,0.2-0.1,0.4-0.1,0.6C15.6,17.2,15.6,22.4,15.5,22.5z"/>
</svg>
