<?xml version="1.0" encoding="utf-8"?>
<svg version="1.1" id="Capa_1" xmlns="http://www.w3.org/2000/svg" xmlns:xlink="http://www.w3.org/1999/xlink" x="0px" y="0px"
	 viewBox="0 0 16 16" style="enable-background:new 0 0 16 16;" xml:space="preserve">
<style type="text/css">
	.st0{fill:#CCFF00;}
	.st1{fill:#FF6003;}
</style>
<path class="st0" d="M14.6,0.5L13,1.4c0.4,1.4,0.8,2.8,1.1,4.2c0.3,1.1,0.3,2.3,0.3,3.4c0.1,1.8-0.4,3.6-1.6,4.9
	c-1.2,1.2-2.9,1.8-4.5,1.7c-0.8,0-1.6-0.1-2.3-0.3c-0.9-0.2-1.6-0.5-2.4-0.9l-1.5,1.2l2.2-4.3c0.5,0.6,1.2,1.1,2,1.6
	c0.7,0.3,1.4,0.5,2.2,0.5s1.6-0.3,2.2-1c0.6-0.7,0.9-1.5,0.9-2.3c0-0.3,0-0.7-0.1-1c-0.3-0.3-0.3-0.7-0.5-1C10.4,9,9.7,9.7,8.8,10.3
	C8.1,10.7,7.2,11,6.2,11c-1.3,0-2.4-0.5-3.3-1.5S1.5,7.2,1.6,5.9c0-1.5,0.5-3,1.4-4.1c0.9-1,2.2-1.6,3.6-1.6c0.8,0,1.6,0.2,2.3,0.6
	c0.8,0.4,1.6,1,2.2,1.7l-1-2.3L14.6,0.5z M7.6,2.3C7.5,2.5,7.3,2.7,7.2,2.9C6.7,3.9,6.9,5.8,9,6c0.7,0.1,1.3-0.4,1.5-0.7
	C9.9,3.5,9.2,2.6,7.6,2.3z"/>
<circle class="st1" cx="8.4" cy="4.3" r="0.9"/>
<path class="st1" d="M5.6,9.6C3.4,9.6,2.7,6.1,2.7,6L3,5.9c0,0,0.6,3.4,2.6,3.4c1.2,0,2.4-0.7,3.1-1.6L9,7.8C8.2,8.9,7,9.5,5.6,9.6z
	"/>
</svg>
