<?xml version="1.0" encoding="utf-8"?>
<!-- Generator: Adobe Illustrator 25.2.1, SVG Export Plug-In . SVG Version: 6.00 Build 0)  -->
<svg version="1.1" id="Capa_1" xmlns="http://www.w3.org/2000/svg" xmlns:xlink="http://www.w3.org/1999/xlink" x="0px" y="0px"
	 viewBox="0 0 28 28" style="enable-background:new 0 0 28 28;" xml:space="preserve">
<style type="text/css">
	.st0{fill:#FFFFFF;stroke:#868686;stroke-width:0.5;stroke-miterlimit:10;}
	.st1{fill:#E50914;}
</style>
<circle class="st0" cx="14" cy="14" r="12.8"/>
<path class="st1" d="M24.5,11.8l-2.8,6.1h-0.8l1-2.1l-1.8-4H21l1.3,3.1l0,0l1.3-3.1H24.5z M13.1,13.7v2.5h-0.9v-6.1h2.3
	c0.5,0,1.1,0.2,1.5,0.5c0.7,0.6,0.8,1.6,0.2,2.4c-0.1,0.1-0.2,0.2-0.2,0.2c-0.4,0.3-0.9,0.5-1.5,0.5L13.1,13.7z M13.1,10.8v2.1h1.4
	c0.3,0,0.6-0.1,0.9-0.3c0.4-0.4,0.5-1,0.1-1.4c0,0-0.1-0.1-0.1-0.1c-0.2-0.2-0.5-0.3-0.9-0.3L13.1,10.8z M18.3,11.8
	c0.5,0,0.9,0.1,1.3,0.5c0.3,0.3,0.5,0.8,0.5,1.3V16h-0.7v-0.6l0,0c-0.3,0.4-0.7,0.7-1.2,0.7c-0.4,0-0.8-0.1-1.1-0.4
	c-0.3-0.2-0.5-0.6-0.5-1c0-0.4,0.2-0.8,0.5-1c0.4-0.3,0.8-0.4,1.2-0.4c0.4,0,0.8,0.1,1.1,0.3v-0.2c0-0.3-0.1-0.5-0.3-0.7
	c-0.2-0.2-0.5-0.3-0.7-0.3c-0.4,0-0.8,0.2-1,0.5l-0.6-0.4C17.1,12.1,17.7,11.8,18.3,11.8L18.3,11.8z M17.4,14.7
	c0,0.2,0.1,0.4,0.2,0.5c0.2,0.1,0.4,0.2,0.6,0.2c0.3,0,0.6-0.1,0.8-0.4c0.2-0.2,0.4-0.5,0.4-0.9c-0.3-0.2-0.6-0.3-0.9-0.3
	c-0.3,0-0.5,0.1-0.8,0.2C17.6,14.3,17.5,14.5,17.4,14.7L17.4,14.7z M7.1,10.1C8,10,8.8,10.4,9.5,11l-1,1c-0.4-0.4-0.9-0.5-1.4-0.5
	c-0.9,0-1.7,0.6-2,1.5c-0.2,0.4-0.2,0.9,0,1.3c0.3,0.9,1.1,1.4,2,1.4c0.4,0,0.8-0.1,1.2-0.3c0.4-0.2,0.6-0.6,0.7-1.1H7.1v-1.4h3.4
	c0,0.2,0.1,0.5,0.1,0.7c0,1-0.4,1.9-1.1,2.6c-0.7,0.6-1.5,0.9-2.4,0.8c-1.3,0-2.6-0.7-3.2-1.9c-0.5-1-0.5-2.2,0-3.1
	C4.5,10.8,5.7,10.1,7.1,10.1z"/>
</svg>
