<?xml version="1.0" encoding="utf-8"?>
<!-- Generator: Adobe Illustrator 25.2.1, SVG Export Plug-In . SVG Version: 6.00 Build 0)  -->
<svg version="1.1" id="Capa_2_1_" xmlns="http://www.w3.org/2000/svg" xmlns:xlink="http://www.w3.org/1999/xlink" x="0px" y="0px"
	 viewBox="0 0 28.3 28.3" style="enable-background:new 0 0 28.3 28.3;" xml:space="preserve">
<style type="text/css">
	.st0{fill:#FFFFFF;stroke:#868686;stroke-width:0.5;stroke-miterlimit:10;}
	.st1{fill-rule:evenodd;clip-rule:evenodd;fill:#E50914;}
</style>
<circle class="st0" cx="14.2" cy="14.2" r="12.8"/>
<g>
	<path class="st1" d="M17.8,5.7h-7.3c-2.6,0-4.9,2.2-4.9,4.9v7.3c0,2.6,2.2,4.9,4.9,4.9h7.3c2.6,0,4.9-2.2,4.9-4.9v-7.4
		C22.7,7.9,20.4,5.7,17.8,5.7z M21.1,17.5c0,2-1.6,3.6-3.6,3.6h-6.8c-2,0-3.6-1.6-3.6-3.6v-6.8c0-2,1.6-3.6,3.6-3.6h6.8
		c2,0,3.6,1.6,3.6,3.6V17.5z"/>
	<path class="st1" d="M14.2,9.8c-2.4,0-4.4,2-4.4,4.4s2,4.4,4.4,4.4s4.4-2,4.4-4.4S16.6,9.8,14.2,9.8z M14.2,17
		c-1.6,0-2.9-1.3-2.9-2.9s1.3-2.9,2.9-2.9s2.9,1.3,2.9,2.9S15.7,17,14.2,17z"/>
	<ellipse class="st1" cx="18.6" cy="9.6" rx="1.1" ry="1.1"/>
</g>
</svg>
