<?xml version="1.0" encoding="utf-8"?>
<!-- Generator: Adobe Illustrator 24.3.0, SVG Export Plug-In . SVG Version: 6.00 Build 0)  -->
<svg version="1.1" id="Capa_1" xmlns="http://www.w3.org/2000/svg" xmlns:xlink="http://www.w3.org/1999/xlink" x="0px" y="0px"
	 viewBox="0 0 80.4 80" style="enable-background:new 0 0 80.4 80;" xml:space="preserve">
<style type="text/css">
	.st0{fill:#E50914;}
</style>
<g>
	<path class="st0" d="M73.1,49.6h-0.5v-1.2c0.1-4-2.9-7.4-7.3-8.3V11.7c0.1-2.2-1.8-4.1-4.3-4.1l0,0H8.3c-2.5,0-4.4,1.8-4.3,4l0,0
		v36.3c-0.1,2.2,1.9,4,4.3,4.1h43.3c-0.1,0.3-0.1,0.5-0.1,0.8v16.5c-0.1,1.7,1.4,3.2,3.3,3.2h18.3c1.9-0.1,3.4-1.5,3.3-3.2V52.9
		C76.5,51.2,75,49.7,73.1,49.6L73.1,49.6z M69.8,48.4v1.3H58.1v-1.3c0.2-3,3-5.2,6.3-5.1h0.1C67.4,43.7,69.6,45.8,69.8,48.4z
		 M6.8,16.2h55.8v3.9H6.8V16.2z M8.3,10.2h52.8c0.8,0,1.5,0.7,1.5,1.4l0,0l0,0v1.9H6.8v-1.8C6.8,10.9,7.4,10.3,8.3,10.2L8.3,10.2z
		 M6.8,47.9V22.8h55.8v17.3c-4.4,0.8-7.4,4.3-7.3,8.3v1h-47C7.5,49.4,6.8,48.8,6.8,47.9L6.8,47.9C6.8,48,6.8,47.9,6.8,47.9z
		 M73.6,69.2c0,0.3-0.2,0.5-0.5,0.5H54.8c-0.3,0-0.5-0.2-0.5-0.5l0,0l0,0V52.9c0-0.3,0.2-0.5,0.5-0.5l0,0h18.3
		c0.3,0,0.5,0.2,0.5,0.5l0,0V69.2L73.6,69.2z"/>
	<path class="st0" d="M12.6,38H24c0.8,0,1.4-0.6,1.4-1.4l0,0l0,0v-6.1c0-0.7-0.6-1.3-1.4-1.4l0,0H12.6c-0.8,0-1.4,0.6-1.4,1.4l0,0
		l0,0v6.1C11.2,37.4,11.8,38,12.6,38L12.6,38z M14,31.9h8.7v3.3H14V31.9z"/>
	<path class="st0" d="M58,35.8c0-4.9-4.1-8.8-9.2-8.9l0,0c-5.1,0.2-9,4.3-8.8,9.2c0,4.5,3.9,8.2,8.8,8.5l0,0
		C53.9,44.6,57.9,40.7,58,35.8z M48.8,42L48.8,42c-3.6-0.3-6.3-3.1-6.1-6.4c0-3.1,2.7-5.6,6.1-5.9l0,0c3.6,0.3,6.3,3.1,6.1,6.4
		C54.8,39.2,52.2,41.7,48.8,42z"/>
	<path class="st0" d="M30,42H12.6c-0.8,0.1-1.5,0.7-1.4,1.5c0.1,0.7,0.7,1.2,1.4,1.2H30c0.8-0.1,1.5-0.7,1.4-1.5
		C31.4,42.5,30.8,42,30,42z"/>
	<path class="st0" d="M64.8,59.2h-1.5c-0.8,0-1.5,0.6-1.4,1.4l0,0c0,0.5,0.3,1,0.8,1.2v1.1c0,0.7,0.6,1.3,1.4,1.3
		c0.8,0,1.4-0.6,1.4-1.3l0,0v-1.1c0.7-0.4,0.9-1.1,0.6-1.8C65.8,59.6,65.3,59.2,64.8,59.2z"/>
</g>
</svg>
