<?xml version="1.0" encoding="utf-8"?>
<!-- Generator: Adobe Illustrator 25.2.1, SVG Export Plug-In . SVG Version: 6.00 Build 0)  -->
<svg version="1.1" id="Capa_1" xmlns="http://www.w3.org/2000/svg" xmlns:xlink="http://www.w3.org/1999/xlink" x="0px" y="0px"
	 viewBox="0 0 209.2 238.7" style="enable-background:new 0 0 209.2 238.7;" xml:space="preserve">
<style type="text/css">
	.papelera{fill:#00000;}
</style>
<g id="Capa_2_1_">
	<path class="papelera" d="M55.2,223.2c-3.2-1.1-6.5-1.8-9.5-3.3c-11.4-5.9-17.3-15.5-17.3-28.2c-0.1-42.9,0-85.7,0-128.6v-6
		c-3.2,0-6.1,0-8.9,0c-3.8,0-6.7-1.2-7-5.5c-0.3-3.8,2.1-5.9,7-6c12.3-0.1,24.6,0,36.9,0h5c0-2.8,0-5.1,0-7.4
		c0.3-12.6,9.7-22.3,22.2-22.5c14-0.2,28-0.2,42,0c12.5,0.2,21.8,9.9,22.2,22.4c0.1,2.3,0,4.5,0,7.4h11.5c10,0,20,0,30,0
		c5.3,0,7.7,2.1,7.5,6c-0.1,3.7-2.6,5.5-7.5,5.5c-2.3,0-4.6,0-6.9,0.1c-0.5,0.1-1,0.2-1.6,0.3v128.2c0,22.4-5.9,30.7-26.8,37.5H55.2
		V223.2z M39.7,57.2v5.5c0,41.9,0,83.9,0,125.8c0,15.7,7.5,23.2,23.1,23.2c27.8,0,55.6,0,83.4,0c15.3,0,23-7.6,23-22.9
		c0-42.2,0-84.5,0-126.8c0-1.6-0.1-3.2-0.2-4.9L39.7,57.2z M135.8,45.2c2-13.1-2.3-18.2-14.9-18.2c-11.4,0-22.7,0-34.1,0
		s-16.4,7-13.4,18.2H135.8z"/>
	<path class="papelera" d="M98.7,134.1c0-16,0-31.9,0-47.9c0-2,0.1-4.3,1.1-5.7s3.3-2.7,4.9-2.5c1.8,0.2,3.8,1.9,4.8,3.5
		c0.9,1.4,0.7,3.5,0.7,5.4c0,31.7,0,63.3,0,95c0,0.9,0,1.8,0,2.8c-0.3,3.6-1.8,6.4-5.8,6.3s-5.6-2.9-5.7-6.5c-0.1-8,0-16,0-24
		C98.7,151.6,98.7,142.9,98.7,134.1z"/>
	<path class="papelera" d="M61.3,134.1c0-14,0-28,0-41.9c0-5.6,1.9-8.3,5.7-8.2c3.8,0.1,5.6,2.9,5.6,8.5c0,27.8,0,55.6,0,83.4
		c0,0.9,0.1,1.9,0,2.8c-0.3,3.5-2.1,5.8-5.8,5.7c-3.7-0.1-5.4-2.4-5.4-6C61.4,163.7,61.4,148.9,61.3,134.1L61.3,134.1z"/>
	<path class="papelera" d="M147.7,134.6c0,14.1,0,28.3,0,42.4c0,5.1-1.8,7.4-5.4,7.4c-3.9,0.1-5.9-2.4-5.9-7.6c0-28.4,0-56.9,0-85.3
		c0-4.7,2.1-7.4,5.6-7.6c3.7-0.1,5.7,2.5,5.7,7.7C147.7,106.1,147.7,120.4,147.7,134.6z"/>
</g>
</svg>
