<svg id="Capa_1" data-name="Capa 1" xmlns="http://www.w3.org/2000/svg" viewBox="0 0 25.51 25.06"><defs><style>.cls-1{fill:#595959;}</style></defs><path class="cls-1" d="M20,14.88a2.51,2.51,0,0,0,2.14-1.24l4.61-8.31c.56-.9,0-1.69-1-1.69H6.59l-1-2.25H1.42v1.8h3l4.61,10-1.8,3c-1,1.68-.22,3.26,1.8,3.26H24.35v-1.8H8.5L10.07,15ZM7.37,5.44h17.2L20.3,13.19H11ZM9.06,21.29a2.61,2.61,0,0,0-2.58,2.58,2.59,2.59,0,1,0,5.17,0A2.61,2.61,0,0,0,9.06,21.29Zm12.81,0a2.61,2.61,0,0,0-2.58,2.58,2.59,2.59,0,1,0,5.17,0A2.61,2.61,0,0,0,21.87,21.29Z" transform="translate(-1.42 -1.39)"/></svg>