<?xml version="1.0" encoding="utf-8"?>
<!-- Generator: Adobe Illustrator 25.2.1, SVG Export Plug-In . SVG Version: 6.00 Build 0)  -->
<svg version="1.1" id="Capa_1" xmlns="http://www.w3.org/2000/svg" xmlns:xlink="http://www.w3.org/1999/xlink" x="0px" y="0px"
	 viewBox="0 0 28.3 28.3" style="enable-background:new 0 0 28.3 28.3;" xml:space="preserve">
<style type="text/css">
	.st0{fill:#90A4AE;}
</style>
<path class="st0" d="M20,15.4c0.9,0,1.8-0.5,2.2-1.3l4.6-8.3c0.3-0.6,0.1-1.4-0.5-1.7C26.1,4,25.9,4,25.7,4H6.8L5.6,1.4H1.4V4H4
	l4.6,9.7l-1.8,3.1c-0.7,1.2-0.2,2.8,1,3.5c0.4,0.2,0.8,0.3,1.2,0.3h15.3V18H9.1l1.4-2.5L20,15.4z M8,6.5h15.5L20,12.9h-9L8,6.5z
	 M9.1,21.8c-1.4,0-2.5,1.1-2.5,2.5c0,1.4,1.1,2.6,2.5,2.6s2.6-1.1,2.6-2.6l0,0C11.6,23,10.5,21.8,9.1,21.8z M21.8,21.8
	c-1.4,0-2.6,1.1-2.6,2.5s1.1,2.6,2.5,2.6c1.4,0,2.6-1.1,2.6-2.5c0,0,0,0,0,0C24.4,23,23.2,21.8,21.8,21.8z"/>
</svg>
