<?xml version="1.0" encoding="utf-8"?>
<!-- Generator: Adobe Illustrator 25.2.1, SVG Export Plug-In . SVG Version: 6.00 Build 0)  -->
<svg version="1.1" id="Capa_1" xmlns="http://www.w3.org/2000/svg" xmlns:xlink="http://www.w3.org/1999/xlink" x="0px" y="0px"
	 viewBox="0 0 28 28" style="enable-background:new 0 0 28 28;" xml:space="preserve">
<style type="text/css">
	.st0{fill:#FFFFFF;stroke:#868686;stroke-width:0.5;stroke-miterlimit:10;}
	.st1{fill:#E50914;}
</style>
<circle class="st0" cx="14" cy="14" r="12.8"/>
<g id="Page-1">
	<g id="visa">
		<path id="outline" class="st1" d="M5.8,8.7C5.5,8.7,5.2,9,5.2,9.3c0,0,0,0,0,0v9.3c0,0.3,0.3,0.6,0.6,0.6h16.3
			c0.3,0,0.6-0.3,0.6-0.6V9.3c0-0.3-0.3-0.6-0.6-0.6L5.8,8.7z M5.8,8h16.3c0.7,0,1.3,0.6,1.3,1.3c0,0,0,0,0,0v9.3
			c0,0.7-0.6,1.3-1.3,1.3c0,0,0,0,0,0H5.9c-0.7,0-1.4-0.5-1.4-1.3c0,0,0-0.1,0-0.1V9.3C4.5,8.6,5.1,8,5.8,8z"/>
		<g id="Logo">
			<polygon id="Shape" class="st1" points="11.7,16.4 12.5,11.7 13.8,11.7 12.9,16.4 			"/>
			<path id="Shape-2" class="st1" d="M17.6,11.8c-0.4-0.1-0.8-0.2-1.2-0.2c-1.3,0-2.2,0.6-2.2,1.6c0,0.7,0.6,1.1,1.1,1.3
				s0.7,0.4,0.7,0.6c0,0.2-0.4,0.5-0.8,0.5c-0.4,0-0.8-0.1-1.2-0.2l-0.2-0.1l-0.2,1.1c0.5,0.2,0.9,0.3,1.4,0.2
				c1.4,0,2.2-0.6,2.3-1.6c0-0.5-0.3-1-1.1-1.3c-0.5-0.2-0.7-0.4-0.7-0.6c0-0.2,0.2-0.4,0.7-0.4c0.3,0,0.7,0.1,1,0.2l0.1,0.1
				L17.6,11.8"/>
			<path id="Path" class="st1" d="M20.9,11.7h-1c-0.3,0-0.6,0.1-0.7,0.4l-1.9,4.3h1.4l0.3-0.7h1.7l0.2,0.7H22L20.9,11.7z M19.4,14.7
				l0.5-1.3c0,0,0.1-0.3,0.2-0.5l0.1,0.4c0,0,0.2,1.1,0.3,1.4H19.4z"/>
			<path id="Path-2" class="st1" d="M10.5,11.7l-1.3,3.2l-0.1-0.7c-0.3-0.9-1-1.6-1.8-2l1.2,4.1h1.4l2-4.7H10.5"/>
			<path id="Shape-3" class="st1" d="M8.1,11.7H6v0.1c1.4,0.3,2.6,1.2,3.1,2.5l-0.5-2.2C8.6,11.8,8.4,11.6,8.1,11.7"/>
		</g>
	</g>
</g>
</svg>
