<svg id="Capa_1" data-name="Capa 1" xmlns="http://www.w3.org/2000/svg" viewBox="0 0 64.99 65.03"><defs><style>.cls-1{fill:#e50914;}</style></defs><path class="cls-1" d="M69.66,25.82l-7.2-18.9a7,7,0,0,0-9-4c-.1,0-.1,0-.2.1L17,18a6.74,6.74,0,0,0-3.8,8.8l1,2.7H12a6.81,6.81,0,0,0-6.8,6.8v24.4a6.81,6.81,0,0,0,6.8,6.8H58a6.81,6.81,0,0,0,6.8-6.8V36.32a4.1,4.1,0,0,0-.1-1.1l1.3-.5A6.89,6.89,0,0,0,69.66,25.82ZM12,31.72H58a4.67,4.67,0,0,1,4.6,4.3H7.36A4.53,4.53,0,0,1,12,31.72Zm10.8-6.5,7.2-3.6,1.5,3.7-7.2,3.6Zm39.8,35.5a4.65,4.65,0,0,1-4.6,4.6H12a4.65,4.65,0,0,1-4.6-4.6V46.92h55.2Zm0-16H7.36v-6.5h55.2Zm2.5-12-1.1.5a6.87,6.87,0,0,0-6-3.6H27.86l5.5-2.8a1.11,1.11,0,0,0,.5-1.4l-2.3-5.7a1.07,1.07,0,0,0-1.4-.6h-.1l-9.2,4.6a1.11,1.11,0,0,0-.5,1.4l1.8,4.5h-5.7l-1.3-3.4a4.85,4.85,0,0,1,2.6-6.1L54.16,5a4.7,4.7,0,0,1,6.2,2.6v.1l7.3,18.9A4.76,4.76,0,0,1,65.06,32.72Z" transform="translate(-5.16 -2.48)"/><path class="cls-1" d="M44.06,62.22a6.32,6.32,0,0,0,6.5,0,6.52,6.52,0,0,0,6.5-11.3,6.29,6.29,0,0,0-3.3-.9,6,6,0,0,0-3.2.9,6.52,6.52,0,0,0-6.5,11.3Zm8.4-9.7a3.53,3.53,0,0,1,1.4-.3,4.3,4.3,0,0,1,0,8.6,3.19,3.19,0,0,1-1.4-.3A6.33,6.33,0,0,0,52.46,52.52Zm-1.8,1.3a4.39,4.39,0,0,1,0,5.7A4.17,4.17,0,0,1,50.66,53.82Zm-3.3-1.5a3.19,3.19,0,0,1,1.4.3,6.47,6.47,0,0,0,0,8.1,3.53,3.53,0,0,1-1.4.3,4.35,4.35,0,0,1,0-8.7Z" transform="translate(-5.16 -2.48)"/><rect class="cls-1" x="50.76" y="22.42" width="11.3" height="2.2" transform="translate(-9.85 22.46) rotate(-23.97)"/><rect class="cls-1" x="43.67" y="19.02" width="16.4" height="2.2" transform="translate(-8.82 21.11) rotate(-24.78)"/></svg>