<?xml version="1.0" encoding="utf-8"?>
<!-- Generator: Adobe Illustrator 25.2.1, SVG Export Plug-In . SVG Version: 6.00 Build 0)  -->
<svg version="1.1" id="Capa_1" xmlns="http://www.w3.org/2000/svg" xmlns:xlink="http://www.w3.org/1999/xlink" x="0px" y="0px"
	 viewBox="0 0 28 28" style="enable-background:new 0 0 28 28;" xml:space="preserve">
<style type="text/css">
	.st0{fill:#FFFFFF;stroke:#868686;stroke-width:0.5;stroke-miterlimit:10;}
	.st1{fill:#E50914;}
</style>
<circle class="st0" cx="14" cy="14" r="12.8"/>
<g id="Page-1">
	<g id="paypal">
		<path id="Rectangle-1" class="st1" d="M5.8,8.7C5.5,8.7,5.2,9,5.2,9.3c0,0,0,0,0,0v9.3c0,0.3,0.3,0.6,0.6,0.6h16.3
			c0.3,0,0.6-0.3,0.6-0.6V9.3c0-0.3-0.3-0.6-0.6-0.6L5.8,8.7z M5.8,8h16.3c0.7,0,1.3,0.6,1.3,1.3c0,0,0,0,0,0v9.3
			c0,0.7-0.6,1.3-1.3,1.3c0,0,0,0,0,0H5.9c-0.7,0-1.4-0.5-1.4-1.3c0,0,0-0.1,0-0.1V9.3C4.5,8.6,5.1,8,5.8,8z"/>
		<g id="Group">
			<path id="Shape" class="st1" d="M8.6,12.3c-0.2-0.2-0.5-0.2-0.8-0.2H6.6c-0.1,0-0.2,0-0.2,0.1c0,0,0,0,0,0l-0.5,3.2
				c0,0,0,0.1,0,0.1c0,0,0.1,0,0.1,0h0.6c0.1,0,0.2,0,0.2-0.1c0,0,0,0,0,0l0.1-0.9c0,0,0-0.1,0.1-0.1c0.1,0,0.1,0,0.2,0h0.4
				c0.4,0,0.8-0.1,1.1-0.4C8.9,13.8,9,13.4,9,13C9,12.7,8.8,12.5,8.6,12.3z M8,13.3c0,0.1-0.1,0.3-0.2,0.4c-0.1,0.1-0.3,0.1-0.5,0.1
				H7l0.1-0.9c0,0,0-0.1,0.1-0.1c0,0,0,0,0,0h0.2c0.2,0,0.3,0,0.5,0.1C8,13,8,13.1,8,13.3L8,13.3z"/>
			<path id="Shape-2" class="st1" d="M22,12.1h-0.6c-0.1,0-0.1,0-0.1,0.1l-0.5,3.3l0,0c0,0,0,0.1,0,0.1c0,0,0.1,0,0.1,0h0.5
				c0.1,0,0.2,0,0.2-0.2L22,12.1L22,12.1C22.1,12.1,22.1,12.1,22,12.1z"/>
			<path id="Shape-3" class="st1" d="M14.9,13.4C14.9,13.4,14.9,13.3,14.9,13.4C14.9,13.3,14.9,13.3,14.9,13.4l-0.7-0.1
				c-0.1,0-0.1,0-0.1,0.1l-0.8,1.2l-0.4-1.2c0-0.1-0.1-0.1-0.2-0.1h-0.6c0,0-0.1,0-0.1,0c0,0,0,0.1,0,0.1c0,0,0,0.2,0.2,0.5
				s0.2,0.6,0.3,1c0.1,0.3,0.2,0.5,0.2,0.6c-0.2,0.3-0.5,0.6-0.7,1c0,0.1,0,0.1,0.1,0.1c0,0,0,0,0,0h0.6c0.1,0,0.1,0,0.1-0.1
				L14.9,13.4C14.9,13.4,14.9,13.4,14.9,13.4z"/>
			<path id="Shape-4" class="st1" d="M20.6,13.3H20c-0.1,0-0.1,0.1-0.1,0.3c-0.2-0.2-0.5-0.4-0.7-0.3c-0.4,0-0.7,0.2-1,0.4
				c-0.2,0.3-0.4,0.6-0.4,1c0,0.5,0.4,1,0.9,1c0,0,0.1,0,0.1,0c0.2,0,0.3,0,0.5-0.1c0.1-0.1,0.3-0.1,0.4-0.3c0,0,0,0.1,0,0.1
				c0,0,0,0.1,0,0.1c0,0.1,0,0.1,0.1,0.1h0.5c0.1,0,0.2-0.1,0.2-0.2c0,0,0,0,0,0l0.3-2.1c0,0,0-0.1,0-0.1
				C20.7,13.2,20.7,13.2,20.6,13.3z M19.6,14.8C19.5,15,19.3,15,19.1,15c-0.1,0-0.3,0-0.4-0.1c-0.1-0.1-0.1-0.2-0.1-0.4
				c0-0.2,0.1-0.4,0.2-0.5c0.1-0.1,0.3-0.2,0.5-0.2c0.1,0,0.3,0,0.4,0.1c0.1,0.1,0.2,0.2,0.1,0.4C19.8,14.5,19.7,14.7,19.6,14.8z"/>
			<path id="Shape-5" class="st1" d="M11.6,13.3H11c-0.1,0-0.1,0.1-0.1,0.3c-0.2-0.2-0.5-0.4-0.8-0.3c-0.4,0-0.7,0.2-1,0.4
				c-0.3,0.3-0.4,0.6-0.4,1c0,0.3,0.1,0.5,0.3,0.7c0.2,0.2,0.5,0.3,0.7,0.3c0.2,0,0.3,0,0.5-0.1c0.1-0.1,0.3-0.1,0.4-0.3
				c0,0.1,0,0.1,0,0.2c0,0.1,0,0.1,0.1,0.1h0.5c0.1,0,0.2-0.1,0.2-0.1c0,0,0,0,0,0l0.3-2.1c0,0,0-0.1,0-0.1
				C11.7,13.2,11.6,13.2,11.6,13.3z M10.6,14.8C10.4,15,10.3,15,10.1,15c-0.1,0-0.3,0-0.4-0.1c-0.1-0.1-0.2-0.2-0.1-0.4
				c0-0.2,0.1-0.4,0.2-0.5c0.1-0.1,0.3-0.2,0.5-0.2c0.1,0,0.3,0,0.4,0.1c0.1,0.1,0.2,0.2,0.1,0.4C10.8,14.5,10.7,14.7,10.6,14.8z"/>
			<path id="Shape-6" class="st1" d="M17.7,12.3c-0.2-0.2-0.5-0.2-0.8-0.2h-1.3c-0.1,0-0.2,0-0.2,0.1c0,0,0,0,0,0l-0.5,3.2
				c0,0,0,0.1,0,0.1c0,0,0.1,0,0.1,0h0.7c0.1,0,0.1,0,0.1-0.1l0.1-1c0,0,0-0.1,0-0.1c0,0,0.1,0,0.1-0.1h0.4c0.4,0,0.8-0.1,1.1-0.4
				c0.3-0.3,0.4-0.7,0.4-1.1C17.9,12.7,17.8,12.5,17.7,12.3z M16.9,13.6c-0.2,0.1-0.3,0.1-0.5,0.1h-0.2l0.1-0.9
				c0-0.1,0.1-0.1,0.1-0.1c0,0,0,0,0,0h0.1l0.3,0.1c0.1,0,0.1,0,0.2,0.1C17,13,17,13.1,17,13.2C17,13.4,16.9,13.5,16.9,13.6
				L16.9,13.6z"/>
		</g>
	</g>
</g>
</svg>
