<?xml version="1.0" encoding="utf-8"?>
<!-- Generator: Adobe Illustrator 25.2.1, SVG Export Plug-In . SVG Version: 6.00 Build 0)  -->
<svg version="1.1" id="Capa_1" xmlns="http://www.w3.org/2000/svg" xmlns:xlink="http://www.w3.org/1999/xlink" x="0px" y="0px"
	 viewBox="0 0 28 28" style="enable-background:new 0 0 28 28;" xml:space="preserve">
<style type="text/css">
	.st0{fill:#FFFFFF;stroke:#868686;stroke-width:0.5;stroke-miterlimit:10;}
	.st1{fill:#E50914;}
</style>
<circle class="st0" cx="14" cy="14" r="12.8"/>
<g id="Page-1">
	<g id="mastercard">
		<path id="Shape" class="st1" d="M22.2,20H5.9c-0.7,0-1.4-0.5-1.4-1.3c0,0,0-0.1,0-0.1V9.3C4.5,8.6,5.1,8,5.8,8h16.3
			c0.7,0,1.3,0.6,1.3,1.3c0,0,0,0,0,0v9.3C23.5,19.4,22.9,20,22.2,20C22.2,20,22.2,20,22.2,20z M5.8,8.7C5.5,8.7,5.2,9,5.2,9.3
			c0,0,0,0,0,0v9.3c0,0.3,0.3,0.6,0.6,0.6h16.3c0.3,0,0.6-0.3,0.6-0.6V9.3c0-0.3-0.3-0.6-0.6-0.6L5.8,8.7z"/>
		<g id="Group">
			<path id="Shape-2" class="st1" d="M10.4,18.3v-0.6c0-0.2-0.1-0.3-0.3-0.4c0,0,0,0,0,0c-0.1,0-0.3,0.1-0.3,0.2
				c-0.1-0.1-0.2-0.2-0.3-0.2c-0.1,0-0.2,0-0.3,0.1v-0.1H8.9v1h0.2v-0.5c0-0.1,0.1-0.2,0.2-0.2c0,0,0,0,0.1,0c0.1,0,0.2,0.1,0.2,0.2
				v0.5h0.2v-0.5c0-0.1,0.1-0.2,0.2-0.2c0,0,0,0,0.1,0c0.1,0,0.2,0.1,0.2,0.2v0.5L10.4,18.3z M13.4,17.4h-0.3v-0.3h-0.2v0.3h-0.2
				v0.2h0.2V18c0,0.2,0.1,0.3,0.3,0.3c0.1,0,0.2,0,0.2-0.1l-0.1-0.2c0,0-0.1,0.1-0.2,0c-0.1,0-0.1,0-0.1-0.1c0,0,0,0,0,0v-0.4h0.3
				L13.4,17.4L13.4,17.4z M15.1,17.4c-0.1,0-0.2,0-0.2,0.1v-0.1h-0.2v1h0.2v-0.5c0-0.2,0.1-0.2,0.2-0.2h0.1l0.1-0.2L15.1,17.4z
				 M12.5,17.5c-0.1-0.1-0.2-0.1-0.4-0.1c-0.2,0-0.4,0.1-0.4,0.3s0.1,0.2,0.3,0.3h0.1c0.1,0,0.2,0.1,0.2,0.1s-0.1,0.1-0.2,0.1
				c-0.1,0-0.2,0-0.3-0.1l-0.1,0.1c0.1,0.1,0.3,0.1,0.4,0.1c0.3,0,0.4-0.1,0.4-0.3s-0.1-0.2-0.3-0.3h-0.1c-0.1,0-0.2,0-0.2-0.1
				s0.1-0.1,0.2-0.1c0.1,0,0.2,0,0.3,0.1L12.5,17.5z M15.3,17.9c0,0.2,0.2,0.5,0.4,0.5c0,0,0,0,0.1,0c0.1,0,0.2,0,0.3-0.1L16,18.1
				c-0.1,0.1-0.2,0.1-0.2,0.1c-0.2,0-0.3-0.1-0.3-0.3c0-0.2,0.1-0.3,0.3-0.3c0.1,0,0.2,0,0.2,0.1l0.1-0.1c-0.1-0.1-0.2-0.1-0.3-0.1
				C15.6,17.4,15.3,17.6,15.3,17.9C15.3,17.8,15.3,17.9,15.3,17.9z M14,17.4c-0.2,0-0.4,0.2-0.5,0.4c0,0,0,0,0,0
				c0,0.2,0.2,0.5,0.4,0.5c0,0,0,0,0,0c0.1,0,0.3,0,0.4-0.1l-0.1-0.1c-0.1,0.1-0.2,0.1-0.3,0.1c-0.1,0-0.3-0.1-0.3-0.2h0.7v-0.1
				C14.5,17.6,14.3,17.4,14,17.4C14,17.4,14,17.4,14,17.4L14,17.4z M14,17.6c0.1,0,0.2,0.1,0.2,0.2c0,0,0,0,0,0h-0.5
				C13.8,17.7,13.9,17.6,14,17.6L14,17.6z M11.5,17.9v-0.5h-0.2v0.1c-0.1-0.1-0.2-0.1-0.3-0.1c-0.3,0-0.5,0.2-0.5,0.5
				s0.2,0.5,0.5,0.5c0.1,0,0.2,0,0.3-0.1v0.1h0.2V17.9z M10.8,17.9c0-0.2,0.1-0.3,0.3-0.3c0,0,0,0,0,0c0.2,0,0.3,0.1,0.3,0.3
				c0,0,0,0,0,0c0,0.2-0.1,0.3-0.3,0.3c0,0,0,0,0,0C10.9,18.2,10.8,18.1,10.8,17.9C10.8,17.9,10.8,17.9,10.8,17.9L10.8,17.9z
				 M17.9,17.4c-0.1,0-0.2,0-0.2,0.1v-0.1h-0.2v1h0.2v-0.5c0-0.2,0.1-0.2,0.2-0.2H18l0.1-0.2L17.9,17.4L17.9,17.4z M17.2,17.9v-0.5
				H17v0.1c-0.1-0.1-0.2-0.2-0.3-0.2c-0.3,0-0.5,0.2-0.5,0.5c0,0.3,0.2,0.5,0.5,0.5c0.1,0,0.2,0,0.3-0.1v0.1h0.2V17.9z M16.5,17.9
				c0-0.2,0.1-0.3,0.3-0.3c0.2,0,0.3,0.1,0.3,0.3c0,0.2-0.1,0.3-0.3,0.3C16.6,18.2,16.5,18.1,16.5,17.9
				C16.4,17.9,16.4,17.9,16.5,17.9L16.5,17.9z M19.1,17.9v-0.8h-0.2v0.5c-0.1-0.1-0.2-0.1-0.3-0.1c-0.3,0-0.5,0.2-0.5,0.5
				s0.2,0.5,0.5,0.5c0.1,0,0.2,0,0.3-0.1v0.1h0.2V17.9z M18.3,17.9c0-0.2,0.1-0.3,0.3-0.3c0.2,0,0.3,0.1,0.3,0.3
				c0,0.2-0.1,0.3-0.3,0.3C18.4,18.2,18.3,18.1,18.3,17.9C18.3,17.9,18.3,17.9,18.3,17.9z"/>
			<path id="Shape-3" class="st1" d="M18.5,10.7c-1.2-1.2-3.1-1.3-4.5-0.4c-1.1-0.8-2.4-0.9-3.6-0.3C8.7,10.9,8,13,8.9,14.7
				c0.9,1.7,2.9,2.4,4.7,1.5c0.2-0.1,0.3-0.2,0.5-0.3c1.6,1.1,3.7,0.8,4.8-0.8c0.4-0.6,0.7-1.3,0.6-2C19.5,12.2,19.1,11.3,18.5,10.7
				z M14,15.4c-1.3-1.1-1.4-3.1-0.2-4.3c0.1-0.1,0.2-0.2,0.2-0.2c1.3,1.1,1.4,3,0.3,4.3C14.2,15.2,14.1,15.3,14,15.4z M12,16.2
				c-1.7,0-3-1.4-3-3c0-1.7,1.4-3,3-3c0.6,0,1.2,0.2,1.7,0.5c-1.4,1.3-1.5,3.5-0.2,4.9c0.1,0.1,0.1,0.1,0.2,0.2
				C13.1,16,12.6,16.2,12,16.2z M16,16.2c-0.6,0-1.2-0.2-1.6-0.5c1.4-1.3,1.5-3.5,0.1-4.9c0,0-0.1-0.1-0.1-0.1
				c0.5-0.3,1.1-0.5,1.7-0.5c1.7,0,3,1.4,3,3C19,14.8,17.7,16.2,16,16.2L16,16.2z"/>
		</g>
	</g>
</g>
</svg>
