<?xml version="1.0" encoding="utf-8"?>
<!-- Generator: Adobe Illustrator 25.2.1, SVG Export Plug-In . SVG Version: 6.00 Build 0)  -->
<svg version="1.1" id="Capa_1" xmlns="http://www.w3.org/2000/svg" xmlns:xlink="http://www.w3.org/1999/xlink" x="0px" y="0px"
	 viewBox="0 0 28.3 28.3" style="enable-background:new 0 0 28.3 28.3;" xml:space="preserve">
<style type="text/css">
	.st0{fill:#FFFFFF;stroke:#868686;stroke-width:0.5;stroke-miterlimit:10;}
	.st1{fill:none;stroke:#E50914;stroke-width:1.1339;stroke-linecap:round;stroke-linejoin:round;stroke-miterlimit:10;}
	.st2{fill:#E50914;}
</style>
<ellipse class="st0" cx="14.2" cy="14.2" rx="12.8" ry="12.8"/>
<g>
	<g>
		<path class="st1" d="M13.2,13.3l-4.4,2.8l-4.2-1.3c0,0-1.1-0.7,1.2-1.5l14-5.3c0,0,2-1,1.4,1.3c-0.5,2.3-2.7,11.9-2.7,11.9
			s-0.2,1.4-1.6,0.4c-1.5-1-5.9-4.5-5.9-4.5l7.6-6.7"/>
		<path class="st1" d="M12.3,20l-1.4,1c0,0-0.6,0.4-0.9-0.5c-0.3-1-1.3-4.4-1.3-4.4"/>
	</g>
	<circle class="st2" cx="14.3" cy="12.6" r="0.5"/>
</g>
</svg>
