<svg id="Capa_1" data-name="Capa 1" xmlns="http://www.w3.org/2000/svg" viewBox="0 0 67.16 60"><defs><style>.cls-1{fill:#e50914;}</style></defs><g id="Alerta"><path class="cls-1" d="M65.76,49.68,39.54,4.26C37.9,1.42,35.74,0,33.58,0s-4.32,1.42-6,4.26L1.4,49.68C-1.88,55.35.8,60,7.36,60H59.8C66.36,60,69,55.35,65.76,49.68Zm-3.62,4.78A3.52,3.52,0,0,1,59.8,55H7.36A3.66,3.66,0,0,1,5,54.47a3.59,3.59,0,0,1,.71-2.29L32,6.76C32.75,5.38,33.45,5,33.58,5s.83.38,1.63,1.76L61.43,52.18A3.58,3.58,0,0,1,62.14,54.46Z"/><path class="cls-1" d="M33.58,41.61a3.74,3.74,0,1,0,3.74,3.74A3.75,3.75,0,0,0,33.58,41.61Z"/><path class="cls-1" d="M33.67,18.83h-.18c-1.75,0-3.16,1.75-3.16,3.91V35.09c0,2.16,1.41,3.91,3.16,3.91h.18c1.75,0,3.16-1.75,3.16-3.91V22.74C36.83,20.58,35.42,18.83,33.67,18.83Z"/></g></svg>