<?xml version="1.0" encoding="utf-8"?>
<!-- Generator: Adobe Illustrator 25.2.1, SVG Export Plug-In . SVG Version: 6.00 Build 0)  -->
<svg version="1.1" id="Capa_1" xmlns="http://www.w3.org/2000/svg" xmlns:xlink="http://www.w3.org/1999/xlink" x="0px" y="0px"
	 viewBox="0 0 28.3 28.3" style="enable-background:new 0 0 28.3 28.3;" xml:space="preserve">
<style type="text/css">
	.st0{fill:#FFFFFF;stroke:#868686;stroke-width:0.5;stroke-miterlimit:10;}
	.st1{fill:#E50914;}
</style>
<ellipse class="st0" cx="14.2" cy="14.2" rx="12.8" ry="12.8"/>
<path class="st1" d="M20.9,10.7v0.5c0,5.4-4.4,9.9-9.8,10H11c-1.9,0-3.8-0.6-5.4-1.6c0.3,0,0.6,0,0.9,0c1.6,0,3.1-0.6,4.4-1.5
	c-1.5,0-2.9-1-3.3-2.5c0.2,0,0.5,0.1,0.7,0.1c0.3,0,0.7,0,1-0.1c-1.6-0.3-2.9-1.8-2.9-3.4l0,0c0.5,0.3,1,0.4,1.6,0.5
	c-1.5-1-2-3-1.1-4.7c1.8,2.2,4.4,3.5,7.2,3.7C14,11.4,14,11.1,14,10.9c0-1.9,1.5-3.5,3.4-3.6c1,0,2,0.4,2.7,1.1
	c0.8-0.2,1.5-0.5,2.2-0.9c-0.3,0.8-0.9,1.4-1.5,1.9c0.7-0.1,1.3-0.3,2-0.6C22.3,9.5,21.6,10.1,20.9,10.7L20.9,10.7z"/>
</svg>
