<?xml version="1.0" encoding="utf-8"?>
<!-- Generator: Adobe Illustrator 25.2.1, SVG Export Plug-In . SVG Version: 6.00 Build 0)  -->
<svg version="1.1" id="Capa_1" xmlns="http://www.w3.org/2000/svg" xmlns:xlink="http://www.w3.org/1999/xlink" x="0px" y="0px"
	 viewBox="0 0 28.3 28.3" style="enable-background:new 0 0 28.3 28.3;" xml:space="preserve">
<style type="text/css">
	.st0{fill:#FFFFFF;stroke:#868686;stroke-width:0.5;stroke-miterlimit:10;}
	.st1{fill:#E50914;}
</style>
<ellipse class="st0" cx="14.2" cy="14.2" rx="12.8" ry="12.8"/>
<path class="st1" d="M20,8.1c-3.3-3.3-8.6-3.3-12,0c-1.6,1.6-2.5,3.7-2.5,6c0,1.5,0.4,2.9,1.2,4.2l-1.2,4.3l4.5-1.2
	c1.2,0.7,2.7,1.1,4.1,1l0,0c4.7,0,8.5-3.8,8.5-8.5C22.6,11.7,21.6,9.6,20,8.1z M14.1,21.1c-1.2,0-2.5-0.4-3.5-1L10.4,20l-2.7,0.7
	l0.7-2.6l-0.2-0.3c-2-3.3-1.1-7.6,2.2-9.7S18,7,20.1,10.3c0.7,1.1,1.1,2.3,1.1,3.6C21.2,18,18,21.1,14.1,21.1L14.1,21.1z M17.9,15.8
	c-0.2-0.1-1.2-0.6-1.4-0.7s-0.4-0.1-0.4,0.1c-0.1,0.2-0.5,0.7-0.7,0.8s-0.3,0.2-0.4,0.1c-1.2-0.5-2.2-1.4-2.8-2.5
	c-0.2-0.4,0.3-0.4,0.6-1.2c0.1-0.1,0.1-0.3,0-0.4s-0.5-1.2-0.7-1.6C11.9,10,11.7,10,11.7,10h-0.4c-0.2,0-0.4,0.1-0.5,0.3
	c-0.4,0.4-0.7,1.1-0.7,1.8c0.1,0.8,0.4,1.6,0.9,2.2c0.9,1.3,2.1,2.5,3.5,3.2c0.8,0.4,1.7,0.6,2.5,0.5c0.6-0.1,1.2-0.5,1.4-1
	c0.2-0.4,0.2-0.6,0.1-1C18.2,15.9,18.1,15.8,17.9,15.8z"/>
</svg>
