<?xml version="1.0" encoding="utf-8"?>
<!-- Generator: Adobe Illustrator 24.3.0, SVG Export Plug-In . SVG Version: 6.00 Build 0)  -->
<svg version="1.1" id="Capa_1" xmlns="http://www.w3.org/2000/svg" xmlns:xlink="http://www.w3.org/1999/xlink" x="0px" y="0px"
	 viewBox="0 0 219.8 47.8" style="enable-background:new 0 0 219.8 47.8;" xml:space="preserve">
<style type="text/css">
	.st0{fill:#FF6003;}
	.st1{fill:#CCFF00;}
	.st2{fill:none;stroke:#FF6003;stroke-width:0.75;stroke-miterlimit:10;}
</style>
<circle class="st0" cx="16.3" cy="20.4" r="1.5"/>
<circle class="st0" cx="106.9" cy="17.4" r="1.5"/>
<circle class="st0" cx="169.8" cy="17.4" r="1.5"/>
<path class="st1" d="M30.5,11.1l-3.6,2c1,3.4,1.9,6.8,2.6,10.3c0.5,2.7,0.8,5.5,0.9,8.2c0,5.1-1.3,9.1-3.8,11.9
	c-2.5,2.8-6,4.2-10.6,4.2c-1.9,0-3.8-0.2-5.6-0.7c-2-0.5-3.9-1.2-5.7-2.1l-3.5,2.9l5.1-10.5c1.3,1.5,2.9,2.8,4.6,3.8
	c1.5,0.8,3.3,1.3,5,1.3c2,0,3.8-0.9,5-2.4c1.4-1.6,2.1-3.6,2.1-5.7c0-0.8-0.1-1.7-0.3-2.5c-0.2-0.8-0.5-1.6-0.9-2.4
	c-1.2,2.1-2.8,3.8-4.8,5.2c-1.8,1.1-4,1.7-6.1,1.6c-3,0.1-5.8-1.2-7.8-3.5C1,30.3-0.1,27.2,0,24c0-4,1.1-7.3,3.3-9.9
	c2-2.5,5.1-4,8.3-3.9c1.9,0,3.7,0.5,5.4,1.4c1.9,1.1,3.7,2.5,5.1,4.2l-2.3-5.6L30.5,11.1z M13.9,15.4c-0.4,0.5-0.7,1-1,1.6
	c-0.2,0.6-0.3,1.2-0.3,1.8c0,1.4,0.5,2.7,1.4,3.7c0.8,1,2,1.6,3.2,1.6c0.6,0,1.2-0.1,1.8-0.4c0.6-0.3,1.2-0.7,1.7-1.2
	c-0.8-1.6-1.8-3.2-3.1-4.5C16.6,16.9,15.4,16,13.9,15.4z"/>
<path class="st1" d="M63.7,11.3l-3.6,1.6l0.7,20.6l2.8,2.2L52.8,37l1.8-7.5c-1.3,2.2-3.1,4.2-5.2,5.6C47.5,36.3,45.2,37,43,37
	c-2.8,0-5.4-1.2-7-3.4c-1.9-2.4-3-5.4-2.9-8.5c0-4.3,1-7.8,3.1-10.6s4.6-4.2,7.7-4.2c2.2,0,4.4,0.6,6.2,1.9c2,1.4,3.5,3.3,4.5,5.5
	l-1.5-7.6L63.7,11.3z M46.5,16.5c-0.4,0.5-0.7,1-0.9,1.6s-0.3,1.3-0.3,1.9c0,1.3,0.5,2.7,1.4,3.6c0.9,1,2.2,1.5,3.5,1.5
	c0.5,0,1-0.1,1.5-0.3c0.6-0.2,1.1-0.5,1.6-0.9c-0.9-1.7-2-3.3-3.3-4.8C49,18,47.8,17.1,46.5,16.5z"/>
<path class="st1" d="M94.6,37.3l-3.7-4.1c-1.6,1.3-3.5,2.4-5.4,3.1c-1.8,0.7-3.8,1-5.7,1c-3.1,0-5.6-0.9-7.5-2.7s-2.8-4.2-2.8-7.2
	c0-1.1,0.1-2.1,0.2-3.2c0.2-1.2,0.4-2.8,0.8-4.8l-2.9,0.3L65,24.2l-0.9-15l3.4,3.4l4.7-0.1c0.4-1.6,0.9-3.2,1.4-4.7s1-3,1.5-4.4
	L68.8,1l21.5-1l-6.1,3.8c-0.3,1.5-0.6,2.9-0.9,4.3c-0.3,1.3-0.5,2.6-0.7,3.9l5.6-0.2l3.9-4.7l-0.6,13.8l-3.5-4l-6.1,0.9
	c-0.2,1.3-0.3,2.5-0.4,3.6s-0.1,2-0.1,2.8c0,1.8,0.3,3.1,0.9,3.9c0.7,0.8,1.7,1.3,2.8,1.2c1.4,0,2.7-0.4,3.9-1.1
	c1.5-0.8,2.8-1.9,3.9-3.2L94.6,37.3z"/>
<path class="st1" d="M126.4,37.2l-2.2-4.1c-2,1.3-4.2,2.3-6.5,3.1c-2.2,0.7-4.5,1-6.8,1c-4.5,0-8.2-1.1-10.9-3.4
	c-2.7-2.2-4.2-5.5-4.1-9c0-2,0.4-3.9,1.1-5.7c0.7-1.8,1.8-3.4,3.2-4.8c1.3-1.3,2.8-2.3,4.5-3c1.8-0.7,3.7-1,5.7-1
	c4,0,7.3,0.9,9.9,2.6s3.9,3.9,3.9,6.5s-1.2,4.8-3.6,6.6c-2.6,1.8-5.8,2.8-9,2.7c-0.8,0-1.7-0.1-2.5-0.2s-1.5-0.3-2.2-0.6
	c1.4,1,2.9,1.8,4.5,2.3c1.5,0.5,3,0.8,4.6,0.8c1.8,0,3.7-0.4,5.3-1.3c1.7-0.9,3.1-2.2,4.1-3.7L126.4,37.2z M101.9,19.7
	c0.6,0.4,1.2,0.8,1.8,1c0.7,0.2,1.4,0.4,2.2,0.4c1.2,0,2.3-0.4,3.2-1.1c0.8-0.7,1.3-1.8,1.2-2.9c0-0.5-0.1-1.1-0.2-1.6
	c-0.2-0.5-0.4-0.9-0.8-1.3c-1.6,0.2-3.2,0.8-4.5,1.8C103.6,16.9,102.6,18.2,101.9,19.7z"/>
<path class="st1" d="M157.3,37.3l-3.6-4.1c-1.6,1.3-3.5,2.4-5.4,3.1c-1.8,0.7-3.8,1-5.7,1c-3.1,0-5.6-0.9-7.5-2.7
	c-1.9-1.9-2.9-4.5-2.8-7.2c0-1.1,0.1-2.1,0.2-3.2c0.2-1.2,0.4-2.8,0.8-4.8l-2.9,0.3l-2.6,4.5l-0.9-15l3.4,3.4l4.7-0.1
	c0.4-1.6,0.9-3.2,1.4-4.7s1-3,1.5-4.4L131.6,1l21.5-1L147,3.8c-0.3,1.5-0.6,2.9-0.9,4.3c-0.3,1.3-0.5,2.6-0.7,3.9l5.6-0.2l3.8-4.7
	L154.2,21l-3.5-4l-6.1,0.9c-0.2,1.3-0.3,2.5-0.4,3.6c-0.1,1.1-0.1,2-0.1,2.8c0,1.8,0.3,3.1,0.9,3.9c0.7,0.8,1.7,1.3,2.8,1.2
	c1.4,0,2.7-0.4,3.9-1.1c1.4-0.8,2.7-1.9,3.9-3.2L157.3,37.3z"/>
<path class="st1" d="M189,37.2l-2.2-4.1c-2,1.3-4.2,2.3-6.5,3.1c-2.2,0.7-4.5,1-6.8,1c-4.5,0-8.2-1.1-10.9-3.4
	c-2.7-2.2-4.2-5.5-4.1-9c0-2,0.4-3.9,1.1-5.7c0.7-1.8,1.8-3.4,3.2-4.8c1.3-1.3,2.8-2.3,4.6-3s3.8-1,5.7-1c4,0,7.3,0.9,9.8,2.6
	c2.6,1.7,3.9,3.9,3.9,6.5s-1.2,4.8-3.6,6.6c-2.6,1.8-5.8,2.8-9,2.7c-0.8,0-1.7-0.1-2.5-0.2s-1.5-0.3-2.2-0.6c1.4,1,2.9,1.8,4.5,2.3
	c1.5,0.5,3,0.8,4.6,0.8c1.8,0,3.7-0.4,5.3-1.3s3.1-2.2,4.1-3.7L189,37.2z M164.6,19.7c0.6,0.4,1.2,0.8,1.8,1
	c0.7,0.2,1.4,0.4,2.2,0.4c1.2,0.1,2.3-0.4,3.2-1.1c0.8-0.7,1.3-1.8,1.2-2.9c0-0.5-0.1-1.1-0.3-1.6s-0.4-0.9-0.8-1.3
	c-1.6,0.2-3.2,0.8-4.5,1.8C166.2,16.9,165.2,18.2,164.6,19.7L164.6,19.7z"/>
<path class="st1" d="M216.8,10.4l-4.7,8.9c-1.1-1-2.3-1.9-3.6-2.5c-1.1-0.5-2.2-0.8-3.4-0.8c-0.8,0-1.7,0.2-2.4,0.7
	c-0.6,0.5-0.9,1.2-0.9,1.9c0,1.5,2.2,2.3,6.7,2.6l1,0.1c3.6,0.2,6.2,0.9,7.9,2c1.6,1.1,2.6,2.9,2.4,4.9c0,2.7-1.3,4.9-4,6.6
	c-2.6,1.7-6.1,2.5-10.4,2.5c-2,0-4-0.3-5.9-0.9c-2.2-0.7-4.3-1.6-6.3-2.8l-4.1,3.6l3.2-9.9c1.4,1.3,3,2.4,4.7,3.2
	c1.3,0.7,2.7,1,4.1,1.1c0.9,0,1.8-0.3,2.5-0.8c0.6-0.6,1-1.4,0.9-2.2c0.1-0.8-0.3-1.7-1-2.2s-2.2-0.9-4.7-1.3
	c-2.8-0.5-4.8-1.2-6-2.2s-1.9-2.5-1.8-4.1c-0.1-2.5,1.1-4.8,3.2-6.2c2.1-1.5,5-2.3,8.6-2.3c1.8,0,3.5,0.2,5.2,0.8
	c1.5,0.5,2.9,1.3,4.1,2.4L216.8,10.4z"/>
<path class="st2" d="M4.9,26.1c0,0,1.2,6.7,5.2,6.7c2.5-0.1,4.8-1.3,6.2-3.3"/>
</svg>
