<?xml version="1.0" encoding="utf-8"?>
<!-- Generator: Adobe Illustrator 24.3.0, SVG Export Plug-In . SVG Version: 6.00 Build 0)  -->
<svg version="1.1" id="Capa_1" xmlns="http://www.w3.org/2000/svg" xmlns:xlink="http://www.w3.org/1999/xlink" x="0px" y="0px"
	 viewBox="0 0 85 85" style="enable-background:new 0 0 85 85;" xml:space="preserve">
<style type="text/css">
	.st0{fill:#DADADA;}
	.st1{fill:none;stroke:#E50914;stroke-width:5;stroke-miterlimit:10;}
	.st2{fill-rule:evenodd;clip-rule:evenodd;fill:#E50914;stroke:#E50914;stroke-width:0.5;stroke-miterlimit:10;}
</style>
<circle class="st0" cx="42.5" cy="42.5" r="42.5"/>
<circle class="st1" cx="42.1" cy="43" r="31.2"/>
<path class="st2" d="M49.9,60.2c-0.8-0.1-1.5-0.3-2.1-0.8c-1.9-1.5-3.9-3-5.8-4.5c-0.3-0.4-1-0.5-1.4-0.1c-0.1,0.1-0.1,0.1-0.2,0.2
	c-1,1-2,1.8-3,2.7c-1.7,1.6-3.3,1.2-4.1-1c-0.9-2.6-1.6-5.1-2.4-7.7c-0.2-0.9-0.9-1.6-1.8-1.8c-1.8-0.5-3.6-1.2-5.3-1.8
	c-1.4-0.5-2.5-1-2.6-2.7s1.2-2.2,2.4-2.7c7.7-3,15.4-6,23-9c2.6-1,5.1-2,7.7-3c0.5-0.2,1.1-0.4,1.7-0.4c1.2-0.3,2.3,0.5,2.6,1.6
	c0.1,0.4,0.1,0.8,0,1.1c-0.8,4.1-1.6,8.1-2.4,12.2c-1,5-2,10-3,15C52.9,59,51.5,60.2,49.9,60.2z"/>
<path class="st2" d="M23.5,42.7l32.6-12.8l-1.7,8.8c-1.2,5.9-2.3,11.8-3.5,17.7c-0.3,1.6-0.6,1.7-1.9,0.7c-3.4-2.6-6.7-5.2-10.1-7.8
	c-0.9-0.6-0.5-1,0-1.5c4-3.6,8-7.1,11.9-10.7l0.8-0.8c0.9-0.7,1.4-1.6,0.6-2.6c-0.8-1-1.7-0.6-2.6,0c-1.9,1.2-3.8,2.4-5.8,3.6
	l-11.5,7.4c-0.4,0.3-0.8,0.6-1.4,0.4C28.5,44.3,26.2,43.6,23.5,42.7z"/>
<path class="st2" d="M36.7,54.8c0.1-1.3,0.3-2.3,0.4-3.5C39.6,52.9,39.6,52.5,36.7,54.8z"/>
</svg>
