<?xml version="1.0" encoding="utf-8"?>
<!-- Generator: Adobe Illustrator 24.3.0, SVG Export Plug-In . SVG Version: 6.00 Build 0)  -->
<svg version="1.1" id="Capa_1" xmlns="http://www.w3.org/2000/svg" xmlns:xlink="http://www.w3.org/1999/xlink" x="0px" y="0px"
	 viewBox="0 0 85 85" style="enable-background:new 0 0 85 85;" xml:space="preserve">
<style type="text/css">
	.st0{fill:#DADADA;}
	.st1{fill-rule:evenodd;clip-rule:evenodd;fill:#E50914;}
</style>
<circle class="st0" cx="42.5" cy="42.5" r="42.5"/>
<path class="st1" d="M70.7,25.2c-0.4-0.5-1,0.2-1.4,0.3c-1.3,0.2-2.4,1-4,0.7c2.1-1.7,3.8-3.5,4.6-6.3c-1.6,1-3.4,1.7-5.2,2.2
	c-1.1,0.3-2.1,0.9-3.4-0.3c-1.7-1.7-4-2.7-6.5-2.7h-2.2c-5.4,0.3-10.3,5-10.5,10.1c-0.4,1.1-0.4,2.2,0,3.3c0,0.6,0,1-0.8,1
	c-1.5,0-3-0.2-4.5-0.7c-6.2-1.3-11.9-4.3-16.4-8.8c-0.9-0.9-2-2.5-2.8-2c-1.2,0.6-1.3,2.5-1.3,4v2.3c0.1,1.9,0.7,3.8,1.8,5.3
	c0.7,1.1,1.6,2.1,2.6,2.9c0.2,0.2,0.5,0.3,0.2,0.6s-0.4,0.1-0.7,0c-1.1-0.2-2.2-0.6-3.3-1c-0.8-0.3-1-0.2-0.9,0.7
	c0.5,4.7,3.8,8.6,8.2,10.1c0.3,0.1,0.6,0.1,0.7,0.7h-4.8c1.7,4.6,5.9,7.9,10.8,8.2c-0.2,0.2-0.3,0.4-0.5,0.6
	c-2.3,1.6-4.9,2.8-7.6,3.6c-1.2,0.4-2.5,1.1-3.9,0.7h-4.6V61l0.7,0.3c4.5,2.8,9.8,4.4,15.1,4.6h3.8c9.5-0.2,18.4-4.7,24.2-12.2
	c5-6.2,7.7-13.9,7.7-21.8c-0.1-0.8,0.3-1.6,1-2.1c1.3-0.9,2.4-2,3.3-3.3C70.3,26.1,71.2,25.8,70.7,25.2z"/>
</svg>
