<?xml version="1.0" encoding="utf-8"?>
<!-- Generator: Adobe Illustrator 24.3.0, SVG Export Plug-In . SVG Version: 6.00 Build 0)  -->
<svg version="1.1" id="Capa_1" xmlns="http://www.w3.org/2000/svg" xmlns:xlink="http://www.w3.org/1999/xlink" x="0px" y="0px"
	 viewBox="0 0 85 85" style="enable-background:new 0 0 85 85;" xml:space="preserve">
<style type="text/css">
	.st0{fill:#DADADA;}
	.st1{fill-rule:evenodd;clip-rule:evenodd;fill:#E50914;}
</style>
<circle class="st0" cx="42.5" cy="42.5" r="42.5"/>
<path class="st1" d="M41.5,14h3c0.4,0.1,0.7,0.2,1.1,0.2c11.3,1,20.9,8.8,24.1,19.6c1,3.7,1.4,7.5,1,11.4c-0.6,5.7-3.1,11.1-7,15.3
	c-8.3,9.2-21.7,11.8-32.9,6.3c-0.8-0.5-1.8-0.5-2.8-0.2c-3,1-6,2-8.9,2.9c-1.6,0.5-3.2,1-5,1.5c0.1-0.5,0.2-0.7,0.3-1
	c1.4-4.3,2.9-8.7,4.3-13c0.1-0.5,0.1-1.1-0.1-1.6c-1-2.9-2.5-5.6-3-8.6c-2.7-14.1,5.9-27.9,19.8-31.8C37.3,14.5,39.4,14.3,41.5,14z
	 M21.2,64.1c2.9-0.9,5.5-1.8,8.1-2.5c0.5-0.1,1-0.1,1.5,0.2c2.2,0.9,4.3,2.1,6.6,2.6c9,2.1,16.8-0.2,22.9-7.1s7.6-14.8,4.4-23.3
	c-3.2-8.7-9.8-13.9-19-15C35.9,17.7,28,21.7,23,30.2c-4.8,8.1-4.4,16.4,0.6,24.4c0.4,0.5,0.5,1.2,0.2,1.9
	C23,58.9,22.2,61.4,21.2,64.1z"/>
<path class="st1" d="M34,28.3c1.7-0.3,2.5,0.5,2.9,2c0.4,1.3,0.8,2.6,1.4,3.8c0.6,1.1,0.4,2.6-0.6,3.4c-1.8,2-1.8,2-0.3,4.2
	c2,3.1,4.9,5.5,8.2,7c0.7,0.4,1.5,0.3,2-0.4c0.6-0.8,1.3-1.5,1.9-2.2c0.3-0.6,1.1-0.8,1.7-0.5c0,0,0,0,0,0c1.8,1,3.7,1.9,5.5,2.9
	c0.4,0.3,0.6,0.7,0.6,1.1c0.1,1.9-0.8,3.6-2.4,4.6c-2,1.3-4.4,1.7-6.7,1c-9.1-2.6-15.1-8.6-18.7-17.1c-1.4-3.2-0.6-6.9,2.1-9.2
	c0.7-0.5,1.4-0.8,2.2-1.1C34,28.1,34,28.2,34,28.3z"/>
</svg>
