<svg id="iOS_adobeContact_72_lt-ou" data-name="iOS adobeContact 72 lt-ou" xmlns="http://www.w3.org/2000/svg" viewBox="0 0 24.5 23.9"><defs><style>.cls-1{fill:#e50914;stroke:#e50914;stroke-miterlimit:10;stroke-width:0.5px;}</style></defs><path class="cls-1" d="M22.15,9.55v-.5A2.22,2.22,0,0,0,20,6.85h-1.1c0-4.3-2.8-6.6-6.6-6.6s-6.6,2.3-6.6,6.6H4.55a2.22,2.22,0,0,0-2.2,2.2v.4a2.18,2.18,0,0,0-2.1,2.1,2.11,2.11,0,0,0,2.1,2.1v.4a2.22,2.22,0,0,0,2.2,2.2h2.6V6.85h-.9c0-3.7,2.3-6,6-6s6,2.3,6,6h-.8v9.5h.7v1.8a2.9,2.9,0,0,1-2.9,2.9h-.8a2.26,2.26,0,0,0-2.2-1.8,2.2,2.2,0,1,0,0,4.4,2.26,2.26,0,0,0,2.2-1.8h.7a3.76,3.76,0,0,0,3.7-3.7v-1.8H20a2.22,2.22,0,0,0,2.2-2.2v-.4a2.1,2.1,0,1,0,0-4.2ZM1,11.65a1.52,1.52,0,0,1,1.4-1.5v3A1.52,1.52,0,0,1,1,11.65Zm5.4-4v8.1H4.55a1.54,1.54,0,0,1-1.5-1.5V9.05a1.54,1.54,0,0,1,1.5-1.5h1.8Zm5.9,15.4a1.5,1.5,0,1,1,1.5-1.5A1.54,1.54,0,0,1,12.25,23.05Zm9.2-8.8a1.54,1.54,0,0,1-1.5,1.5h-1.8V7.65H20a1.54,1.54,0,0,1,1.5,1.5Zm.7-1.1v-3a1.5,1.5,0,0,1,0,3Z"/></svg>