<svg id="Capa_1" data-name="Capa 1" xmlns="http://www.w3.org/2000/svg" viewBox="0 0 22 22"><defs><style>.cls-1{fill:#babdbf;}.cls-2{fill:#e50914;}</style></defs><circle class="cls-1" cx="11" cy="11" r="11"/><path class="cls-2" d="M19.8,7.83c0,.16,0,.32,0,.48a10.43,10.43,0,0,1-10.5,10.5,10.41,10.41,0,0,1-5.66-1.66,6.55,6.55,0,0,0,.89.05,7.35,7.35,0,0,0,4.58-1.58,3.69,3.69,0,0,1-3.45-2.56,4,4,0,0,0,.7.06,3.91,3.91,0,0,0,1-.12,3.7,3.7,0,0,1-3-3.62V9.33a3.72,3.72,0,0,0,1.67.47A3.68,3.68,0,0,1,4.91,4.86a10.46,10.46,0,0,0,7.6,3.86,4.69,4.69,0,0,1-.09-.84,3.69,3.69,0,0,1,6.39-2.52,7.16,7.16,0,0,0,2.34-.9,3.74,3.74,0,0,1-1.62,2,7.55,7.55,0,0,0,2.12-.57,7.76,7.76,0,0,1-1.85,1.9Z" transform="translate(-1.65 -0.5)"/></svg>