<?xml version="1.0" encoding="utf-8"?>
<!-- Generator: Adobe Illustrator 24.3.0, SVG Export Plug-In . SVG Version: 6.00 Build 0)  -->
<svg version="1.1" id="iOS_adobeContact_72_lt-ou" xmlns="http://www.w3.org/2000/svg" xmlns:xlink="http://www.w3.org/1999/xlink"
	 x="0px" y="0px" viewBox="0 0 72 72" style="enable-background:new 0 0 72 72;" xml:space="preserve">
<style type="text/css">
	.st0{fill:#E50914;stroke:#E50914;stroke-width:0.25;stroke-miterlimit:10;}
</style>
<path class="st0" d="M63,29.2V28c0-3.3-2.7-6-6-6h-3c0-11.6-7.5-18-18-18c-10.4,0-18,6.4-18,18h-3c-3.3,0-6,2.7-6,6v1.2
	c-3.1,0.1-5.6,2.7-5.6,5.8s2.5,5.7,5.6,5.8V42c0,3.3,2.7,6,6,6h7V22h-2.3C19.7,11.9,26,5.7,36,5.7S52.3,11.9,52.3,22H50v26h2v5
	c0,4.4-3.6,8-8,8h-2.1c-0.5-2.8-2.9-5-5.9-5c-3.3,0-6,2.7-6,6c0,3.3,2.7,6,6,6c3,0,5.4-2.2,5.9-5H44c5.5,0,10-4.5,10-10v-5h3
	c3.3,0,6-2.7,6-6v-1.2c3.2,0,5.8-2.6,5.8-5.8S66.2,29.2,63,29.2z M5.2,35c0-2.1,1.7-3.9,3.8-4v8C6.9,38.9,5.2,37.1,5.2,35z M20,24
	v22h-5c-2.2,0-4-1.8-4-4V28c0-2.2,1.8-4,4-4H20z M36,66c-2.2,0-4-1.8-4-4c0-2.2,1.8-4,4-4s4,1.8,4,4C40,64.2,38.2,66,36,66z M61,42
	c0,2.2-1.8,4-4,4h-5V24h5c2.2,0,4,1.8,4,4V42z M63,39v-8c2.2,0,4,1.8,4,4S65.2,39,63,39z"/>
</svg>
