<?xml version="1.0" encoding="utf-8"?>
<!-- Generator: Adobe Illustrator 24.3.0, SVG Export Plug-In . SVG Version: 6.00 Build 0)  -->
<svg version="1.1" id="Capa_1" xmlns="http://www.w3.org/2000/svg" xmlns:xlink="http://www.w3.org/1999/xlink" x="0px" y="0px"
	 viewBox="0 0 65 65" style="enable-background:new 0 0 65 65;" xml:space="preserve">
<style type="text/css">
	.st0{fill:none;stroke:#E50914;stroke-miterlimit:10;}
</style>
<g>
	<path class="st0" d="M2.7,8.7C3,7.9,3.2,7.2,4,6.7C4.5,6.3,5.2,6.1,5.8,6h0.1C21,6,36.1,6,51.2,6c1.3,0,2.3,0.7,2.8,1.8
		c0.3,0.6,0.4,1.1,0.4,1.7c0,5.1,0,10.2,0,15.2c0,0.7,0.2,1.1,0.7,1.5c2.9,2.3,4.7,5.4,5.1,9.2c0.1,0.5,0.1,0.7,0.7,0.8
		c0.8,0,1.2,0.6,1.2,1.5c0,3.3,0,6.6,0,9.9c0,2.8,0,5.6,0,8.4c0,1.7-1.1,3.1-3.1,3.1c-8.3,0-16.6,0-24.9,0c-1.7,0-3.1-1.1-3.1-3.1
		c0-4.9,0-9.8,0-14.7c0-0.6-0.1-0.7-0.6-0.7c-7.8,0-15.6,0-23.4,0c-2.1,0-3.6-0.6-4.2-2.7L2.7,8.7z"/>
	<path class="st0" d="M51.8,24.3c-0.9-0.3-1.8-0.6-2.7-0.7c-8.1-1.5-15.3,4-16.2,12.2c0,0.3-0.1,0.5-0.5,0.5
		c-1.1,0.1-1.5,0.5-1.5,1.6c0,0.4-0.1,0.5-0.5,0.5c-8.1,0-16.1,0-24.3,0c-0.8,0-1-0.2-1-1c0-5,0-10,0-15c0-0.5,0.1-0.5,0.6-0.5
		c15.1,0,30.4,0,45.5,0c0.5,0,0.6,0.1,0.6,0.6C51.8,22.9,51.8,23.6,51.8,24.3z"/>
	<path class="st0" d="M46.6,38.7c4.1,0,8.3,0,12.5,0c0.5,0,0.6,0.1,0.6,0.6c0,5.6,0,11.2,0,16.7c0,0.6-0.2,0.6-0.7,0.6
		c-8.3,0-16.5,0-24.8,0c-0.6,0-0.7-0.1-0.7-0.7c0-5.6,0-11.1,0-16.7c0-0.6,0.2-0.6,0.6-0.6C38.3,38.7,42.4,38.7,46.6,38.7z"/>
	<path class="st0" d="M28.5,14.4c7.6,0,15.1,0,22.7,0c0.6,0,0.6,0.2,0.6,0.6c0,1.2,0,2.3,0,3.5c0,0.4-0.1,0.6-0.5,0.6
		c-15.2,0-30.5,0-45.7,0c-0.4,0-0.5-0.1-0.5-0.5c0-1.2,0-2.5,0-3.7c0-0.5,0.2-0.6,0.6-0.6C13.3,14.4,20.9,14.4,28.5,14.4z"/>
	<path class="st0" d="M28.5,11.9c-7.5,0-15,0-22.6,0c-0.6,0-0.7-0.2-0.6-0.7c0.1-0.6,0-1.3,0-1.8s0.3-0.8,0.8-0.8c0.2,0,0.4,0,0.6,0
		h43.8c1.2,0,1.4,0.2,1.4,1.4c0,0.5,0,0.9,0,1.4c0,0.6-0.1,0.6-0.6,0.6c-5.5,0-11.1,0-16.6,0L28.5,11.9z"/>
	<path class="st0" d="M46.5,36.2c-2.1,0-4.2,0-6.4,0c-0.4,0-0.6-0.1-0.5-0.5c0.9-4.4,5.7-6.8,9.6-5c2.1,1,3.4,2.7,3.9,5
		c0.1,0.4,0,0.5-0.4,0.5C50.8,36.2,48.7,36.2,46.5,36.2z"/>
	<path class="st0" d="M46.5,25.9c5.7-0.1,10.5,4.3,11.2,9.9c0,0.3,0,0.4-0.4,0.5c-1.3,0-1.3,0.1-1.6-1.2c-0.9-3.6-3.1-6.1-6.7-7
		c-3.6-1-6.8-0.1-9.4,2.7c-1.4,1.4-2.2,3.2-2.5,5.1c-0.1,0.4-0.2,0.5-0.5,0.5c-1.4,0-1.4,0-1.1-1.4C36.6,29.7,41.2,25.9,46.5,25.9z"
		/>
	<path class="st0" d="M43.6,51.5C43.6,51.4,43.6,51.4,43.6,51.5c0.1-1-0.2-1.7-0.9-2.4c-1.7-1.6-2-3.6-1.2-5.7
		c0.8-2,2.3-3.2,4.5-3.4c2.9-0.3,5.6,1.8,6,4.9c0.2,1.8-0.6,3.7-2,4.8c-0.3,0.2-0.4,0.5-0.4,0.7c0,0.8,0.1,1.7,0,2.5
		c-0.2,1.7-1.7,2.8-3.3,2.7c-1.4-0.2-2.5-1.3-2.7-2.8C43.6,52.3,43.6,51.9,43.6,51.5L43.6,51.5z"/>
	<path class="st0" d="M46.1,50.8c0-0.2,0-0.4,0-0.6c0.1-1.1-0.1-1.9-1.3-2.6c-1.2-0.6-1.5-2-1-3.3c0.6-1.6,2.2-2.3,3.7-1.8
		c0.9,0.3,1.6,1,1.8,2c0.4,1.3-0.1,2.6-1.3,3.2c-0.8,0.5-1.1,1.1-1.1,1.9c0.1,0.8,0,1.7,0,2.5c0,0.4-0.1,0.6-0.5,0.6
		c-0.5,0-0.5-0.4-0.5-0.6C46.2,51.8,46.1,51.3,46.1,50.8z"/>
	<path class="st0" d="M9.7,36.3c1.8,1.1,4.1,1.1,6,0c2.8,1.7,6.5,0.6,8.2-2.2s0.6-6.5-2.2-8.2c-0.9-0.6-1.9-0.8-3-0.8
		c-1,0-2.1,0.3-2.9,0.8c-2.8-1.7-6.5-0.6-8.2,2.2C5.9,30.9,6.8,34.6,9.7,36.3z M17.4,27.4c0.5-0.2,0.8-0.3,1.3-0.3
		c2.2,0,3.9,1.7,3.9,3.9S20.8,35,18.6,35c-0.5,0-0.9-0.1-1.3-0.3C19.1,32.7,19.1,29.6,17.4,27.4z M15.7,28.6c1.3,1.5,1.3,3.8,0,5.2
		C14.3,32.2,14.3,30,15.7,28.6z M12.7,27.2c0.5,0,0.9,0.1,1.3,0.3c-1.7,2.2-1.7,5.3,0,7.4c-0.5,0.2-0.8,0.3-1.3,0.3
		c-2.2,0-3.9-1.7-3.9-3.9C8.7,28.9,10.5,27.2,12.7,27.2z"/>
</g>
</svg>
