<?xml version="1.0" encoding="utf-8"?>
<!-- Generator: Adobe Illustrator 24.3.0, SVG Export Plug-In . SVG Version: 6.00 Build 0)  -->
<svg version="1.1" id="Capa_1" xmlns="http://www.w3.org/2000/svg" xmlns:xlink="http://www.w3.org/1999/xlink" x="0px" y="0px"
	 viewBox="0 0 62.4 65.2" style="enable-background:new 0 0 62.4 65.2;" xml:space="preserve">
<style type="text/css">
	.st0{fill:#E50914;stroke:#E50914;stroke-width:0.25;stroke-miterlimit:10;}
</style>
<g>
	<g>
		<path class="st0" d="M31.2,32.7c-17.1,0-31.1,13.9-31.1,31.1c0,0.7,0.6,1.4,1.4,1.4s1.4-0.6,1.4-1.4c0-15.6,12.7-28.4,28.4-28.4
			s28.4,12.7,28.4,28.4c0,0.7,0.6,1.4,1.4,1.4c0.7,0,1.4-0.6,1.4-1.4C62.3,46.6,48.3,32.7,31.2,32.7z"/>
	</g>
</g>
<g>
	<g>
		<path class="st0" d="M31.2,0.1C23,0.1,16.3,6.8,16.3,15S23,29.8,31.2,29.8S46,23.2,46,15S39.4,0.1,31.2,0.1z M31.2,27.1
			C24.5,27.1,19,21.7,19,15S24.5,2.8,31.2,2.8S43.3,8.3,43.3,15S37.9,27.1,31.2,27.1z"/>
	</g>
</g>
</svg>
