<svg id="Capa_1" data-name="Capa 1" xmlns="http://www.w3.org/2000/svg" viewBox="0 0 314.82 68.7"><title>Mesa de trabajo 1</title><circle cx="23.44" cy="29.21" r="2.13" style="fill:#ff6003"/><circle cx="153.15" cy="24.96" r="2.13" style="fill:#ff6003"/><circle cx="243.15" cy="24.96" r="2.13" style="fill:#ff6003"/><path d="M43.7,16l-5.17,2.88a137.27,137.27,0,0,1,3.66,14.75,66.17,66.17,0,0,1,1.23,11.79q0,10.94-5.4,17T22.89,68.48a34.51,34.51,0,0,1-8-.94,42.23,42.23,0,0,1-8.17-3l-5,4.12,7.28-15a23.56,23.56,0,0,0,6.59,5.38,15.13,15.13,0,0,0,7.16,1.83,9.27,9.27,0,0,0,7.2-3.45,12,12,0,0,0,3-8.16,15.29,15.29,0,0,0-.41-3.53,16.63,16.63,0,0,0-1.25-3.46,22.24,22.24,0,0,1-6.92,7.38,16.33,16.33,0,0,1-8.79,2.36A14.24,14.24,0,0,1,4.46,47,18.13,18.13,0,0,1,0,34.56Q0,26,4.71,20.37a14.82,14.82,0,0,1,11.85-5.6,16.06,16.06,0,0,1,7.68,2,27.6,27.6,0,0,1,7.37,6.05l-3.24-8ZM20.07,22.11a7.12,7.12,0,0,0-1.38,2.25A7.2,7.2,0,0,0,18.21,27a7.65,7.65,0,0,0,2,5.29,6.13,6.13,0,0,0,4.64,2.27A5.75,5.75,0,0,0,27.37,34a9.26,9.26,0,0,0,2.44-1.74,26.86,26.86,0,0,0-4.39-6.47A15.5,15.5,0,0,0,20.07,22.11Z" style="fill:#cf0"/><path d="M91.27,16.28,86.1,18.63l1.05,29.46,4,3.1L75.73,53.12,78.36,42.4a24,24,0,0,1-7.47,8,16.76,16.76,0,0,1-9.23,2.71,12.64,12.64,0,0,1-10.07-4.9A18.32,18.32,0,0,1,47.5,36.07q0-9.24,4.39-15.2t11.07-6a15.33,15.33,0,0,1,8.92,2.65,20.41,20.41,0,0,1,6.48,7.93L76.15,14.63ZM66.66,23.63a6.89,6.89,0,0,0-1.34,2.25,8.32,8.32,0,0,0-.42,2.77,7.18,7.18,0,0,0,2,5.19,6.67,6.67,0,0,0,5,2.09,6,6,0,0,0,2.18-.44,10.18,10.18,0,0,0,2.29-1.28,34.18,34.18,0,0,0-4.69-6.81A15.28,15.28,0,0,0,66.66,23.63Z" style="fill:#cf0"/><path d="M135.53,53.51l-5.24-5.91a29.35,29.35,0,0,1-7.74,4.45,23.24,23.24,0,0,1-8.19,1.46q-6.67,0-10.68-3.87t-4-10.34a38.37,38.37,0,0,1,.33-4.6q.33-2.67,1.11-6.89L97,28.3l-3.76,6.4L92,13.25l4.82,4.82,6.71-.21c.63-2.32,1.29-4.57,2-6.73s1.42-4.27,2.19-6.31l-9-3.45L129.48,0l-8.72,5.48c-.47,2.16-.89,4.2-1.28,6.12s-.72,3.79-1,5.59l8-.35L132,10.09,131.13,30l-4.95-5.76-8.79,1.23c-.24,1.9-.41,3.62-.53,5.17s-.18,2.89-.18,4c0,2.6.41,4.48,1.23,5.62a4.59,4.59,0,0,0,4,1.73,11.32,11.32,0,0,0,5.52-1.59A21.68,21.68,0,0,0,133,35.86Z" style="fill:#cf0"/><path d="M181,53.3l-3.16-5.84a39.53,39.53,0,0,1-9.36,4.4,32.61,32.61,0,0,1-9.66,1.44q-9.75,0-15.6-4.84a15.78,15.78,0,0,1-5.85-12.81,21.28,21.28,0,0,1,1.6-8.14,20.61,20.61,0,0,1,4.52-6.84A18.73,18.73,0,0,1,150,16.42,22.4,22.4,0,0,1,158.13,15q8.55,0,14.1,3.69T177.79,28q0,5.63-5.12,9.42a20.91,20.91,0,0,1-12.81,3.8,20,20,0,0,1-3.56-.3,16.62,16.62,0,0,1-3.16-.9,26.64,26.64,0,0,0,6.49,3.32,20.22,20.22,0,0,0,6.55,1.08,15.82,15.82,0,0,0,7.56-1.83,16.94,16.94,0,0,0,5.91-5.31ZM146,28.23a8.36,8.36,0,0,0,2.64,1.42,9.53,9.53,0,0,0,3.09.51,6.41,6.41,0,0,0,4.53-1.61A5.36,5.36,0,0,0,158,24.4a6.47,6.47,0,0,0-.35-2.22,6.13,6.13,0,0,0-1.09-1.86,14.07,14.07,0,0,0-6.42,2.55A13.4,13.4,0,0,0,146,28.23Z" style="fill:#cf0"/><path d="M225.21,53.51,220,47.6a29.3,29.3,0,0,1-7.73,4.45,23.24,23.24,0,0,1-8.19,1.46q-6.69,0-10.69-3.87a13.71,13.71,0,0,1-4-10.34,36.62,36.62,0,0,1,.34-4.6q.33-2.67,1.1-6.89l-4.08.49L183,34.7l-1.3-21.45,4.82,4.82,6.71-.21c.64-2.32,1.3-4.57,2-6.73s1.42-4.27,2.2-6.31l-9-3.45L219.16,0l-8.71,5.48q-.7,3.24-1.29,6.12c-.38,1.92-.72,3.79-1,5.59l8.05-.35,5.49-6.75L220.82,30l-5-5.76-8.79,1.23c-.23,1.9-.41,3.62-.53,5.17s-.17,2.89-.17,4c0,2.6.41,4.48,1.23,5.62a4.58,4.58,0,0,0,4,1.73,11.32,11.32,0,0,0,5.52-1.59,21.82,21.82,0,0,0,5.51-4.53Z" style="fill:#cf0"/><path d="M270.63,53.3l-3.16-5.84a39.65,39.65,0,0,1-9.35,4.4,32.68,32.68,0,0,1-9.67,1.44q-9.73,0-15.59-4.84A15.79,15.79,0,0,1,227,35.65a21.47,21.47,0,0,1,1.6-8.14,20.76,20.76,0,0,1,4.52-6.84,18.82,18.82,0,0,1,6.52-4.25A22.45,22.45,0,0,1,247.82,15q8.54,0,14.09,3.69T267.47,28q0,5.63-5.12,9.42a20.91,20.91,0,0,1-12.81,3.8,19.83,19.83,0,0,1-3.55-.3,16.72,16.72,0,0,1-3.17-.9,26.82,26.82,0,0,0,6.49,3.32,20.28,20.28,0,0,0,6.56,1.08,15.88,15.88,0,0,0,7.56-1.83,17,17,0,0,0,5.9-5.31Zm-35-25.07a8.36,8.36,0,0,0,2.64,1.42,9.62,9.62,0,0,0,3.09.51,6.43,6.43,0,0,0,4.54-1.61,5.39,5.39,0,0,0,1.76-4.15,6.46,6.46,0,0,0-.36-2.22,5.93,5.93,0,0,0-1.09-1.86,14.07,14.07,0,0,0-6.41,2.55A13.34,13.34,0,0,0,235.65,28.23Z" style="fill:#cf0"/><path d="M310.43,15,303.75,27.7a22.7,22.7,0,0,0-5.22-3.64,11.36,11.36,0,0,0-4.87-1.17,5.28,5.28,0,0,0-3.39,1,3.31,3.31,0,0,0-1.22,2.71q0,3.12,9.53,3.76l1.48.11q7.77.53,11.27,2.84a7.8,7.8,0,0,1,3.49,7q0,5.78-5.67,9.41T294.22,53.3a29.12,29.12,0,0,1-8.45-1.3,44.35,44.35,0,0,1-8.95-4L271,53.19,275.52,39a30.4,30.4,0,0,0,6.66,4.63,13.74,13.74,0,0,0,5.93,1.56A5.19,5.19,0,0,0,291.69,44,4.05,4.05,0,0,0,293,40.82a3.54,3.54,0,0,0-1.41-3.11q-1.41-1-6.75-1.85c-4-.66-6.85-1.69-8.59-3.09a7.16,7.16,0,0,1-2.62-5.91A10.29,10.29,0,0,1,278.21,18q4.55-3.27,12.29-3.27A23.59,23.59,0,0,1,298,15.82a17.15,17.15,0,0,1,5.84,3.41Z" style="fill:#cf0"/><path d="M7.13,37.48S8.83,47,14.57,47a11.35,11.35,0,0,0,8.87-4.76" style="fill:none;stroke:#ff6003;stroke-miterlimit:10;stroke-width:0.75px"/></svg>