<svg id="Capa_1" data-name="Capa 1" xmlns="http://www.w3.org/2000/svg" viewBox="0 0 85.04 85.04"><defs><style>.cls-1{fill:#dadada;}.cls-2{fill:#e50914;fill-rule:evenodd;}</style></defs><circle class="cls-1" cx="42.52" cy="42.52" r="42.52"/><path class="cls-2" d="M70.87,25.32c-.37-.52-1,.19-1.45.27-1.26.2-2.43,1-4,.72,2.11-1.74,3.82-3.5,4.59-6.28a23.33,23.33,0,0,1-5.16,2.25c-1.11.33-2.09.9-3.36-.33a9.46,9.46,0,0,0-6.45-2.74H52.8c-5.39.32-10.28,5-10.55,10.12a5.07,5.07,0,0,0,0,3.31c0,.57,0,1-.83,1a14.83,14.83,0,0,1-4.5-.68A32.18,32.18,0,0,1,20.5,24.16c-.86-.87-2-2.5-2.82-2.05-1.17.63-1.32,2.46-1.32,4v2.28a9.81,9.81,0,0,0,1.76,5.34,13,13,0,0,0,2.59,2.89c.19.15.49.31.24.63s-.4.06-.66,0a22.4,22.4,0,0,1-3.3-1c-.78-.35-1-.17-.89.74A12.12,12.12,0,0,0,24.34,47.1c.28.11.63.13.69.67H20.26A12.47,12.47,0,0,0,31.07,56a4.82,4.82,0,0,1-.54.61,25.85,25.85,0,0,1-7.65,3.63c-1.24.37-2.51,1.13-3.93.67H14.31v.26l.73.32a30.51,30.51,0,0,0,15.11,4.58H34A31.56,31.56,0,0,0,58.18,53.87a34.1,34.1,0,0,0,7.67-21.8,2.36,2.36,0,0,1,1-2.08,14.06,14.06,0,0,0,3.31-3.31C70.44,26.24,71.31,25.94,70.87,25.32Z" transform="translate(-0.13 -0.13)"/></svg>