<svg id="Capa_1" data-name="Capa 1" xmlns="http://www.w3.org/2000/svg" viewBox="0 0 85.04 85.04"><defs><style>.cls-1{fill:#dadada;}.cls-2{fill:#e50914;fill-rule:evenodd;}</style></defs><circle class="cls-1" cx="42.52" cy="42.52" r="42.52"/><path class="cls-2" d="M41.46,14h3a10.83,10.83,0,0,0,1.11.21A27.71,27.71,0,0,1,69.71,33.83a31.5,31.5,0,0,1,1,11.36,27.11,27.11,0,0,1-7,15.34,27.79,27.79,0,0,1-32.89,6.33,3.31,3.31,0,0,0-2.75-.2c-3,1-5.95,2-8.94,2.9-1.59.5-3.18,1-5,1.52.14-.48.19-.72.27-1,1.45-4.33,2.92-8.65,4.33-13a2.67,2.67,0,0,0-.13-1.62c-1-2.86-2.49-5.63-3-8.57A27.6,27.6,0,0,1,35.37,15.12C37.35,14.55,39.43,14.34,41.46,14ZM21.24,64.09c2.91-.93,5.52-1.78,8.15-2.55a2.41,2.41,0,0,1,1.49.15c2.2.86,4.3,2.08,6.57,2.62,9,2.14,16.79-.24,22.91-7.09S68,42.43,64.81,33.88c-3.25-8.72-9.78-13.92-19-15C35.92,17.72,28,21.66,23,30.21c-4.8,8.11-4.35,16.41.65,24.41a1.92,1.92,0,0,1,.23,1.86C23,58.91,22.17,61.36,21.24,64.09Z"/><path class="cls-2" d="M34,28.35c1.67-.34,2.46.49,2.89,2a23.09,23.09,0,0,0,1.41,3.8,2.75,2.75,0,0,1-.6,3.44c-1.78,2-1.75,2-.26,4.23a19.54,19.54,0,0,0,8.19,7,1.48,1.48,0,0,0,2-.39c.6-.76,1.29-1.46,1.9-2.22a1.27,1.27,0,0,1,1.77-.45c1.83,1,3.69,1.89,5.5,2.9a1.5,1.5,0,0,1,.62,1.11,5.09,5.09,0,0,1-2.39,4.63,8,8,0,0,1-6.67,1c-9.09-2.6-15.06-8.64-18.71-17.12a7.86,7.86,0,0,1,2.09-9.17A9.8,9.8,0,0,1,33.94,28C34,28.14,34,28.24,34,28.35Z"/></svg>