<?xml version="1.0" encoding="utf-8"?>
<!-- Generator: Adobe Illustrator 24.3.0, SVG Export Plug-In . SVG Version: 6.00 Build 0)  -->
<svg version="1.1" xmlns="http://www.w3.org/2000/svg" xmlns:xlink="http://www.w3.org/1999/xlink" x="0px" y="0px"
	 viewBox="0 0 22.5 22.5" style="enable-background:new 0 0 22.5 22.5;" xml:space="preserve">
<style type="text/css">
	.st0{fill:#62727A;}
	.st1{fill:#B2C1C0;}
	.st2{fill:#E50914;}
	.st3{fill:#FFFFFF;}
</style>
<g id="Fondo_xA0_Imagen_1_">
</g>
<g id="_xD83D__xDED2_">
	<g>
		<g>
			<path class="st0" d="M3.3,13.7h2.8v1.4H3.3c-0.4,0-0.7,0.3-0.7,0.7s0.3,0.7,0.7,0.7h17.6c0.4,0,0.7,0.3,0.7,0.7
				c0,0.4-0.3,0.7-0.7,0.7H3.3c-1.2,0-2.1-0.9-2.1-2.1C1.2,14.7,2.2,13.7,3.3,13.7z"/>
			<path class="st1" d="M2.8,8.9l1.4-0.1c0-0.1-0.9-5.2-1-6.2C3.1,2,2.8,0.3,0.7,0.3v1.4c0.9,0,1,0.3,1.1,1C1.9,3.7,2.8,8.8,2.8,8.9
				z"/>
			<path class="st2" d="M3.9,5.6c0-0.2,0.1-0.3,0.3-0.3h2.2c0.2,0,0.4,0.2,0.4,0.3L7,7c0,0.2-0.1,0.3-0.3,0.3H4.6
				C4.4,7.4,4.2,7.2,4.1,7L3.9,5.6z M4.5,9.1c0-0.2,0.1-0.3,0.3-0.3h2.1c0.2,0,0.4,0.2,0.4,0.3l0.1,1.1c0,0.2-0.1,0.3-0.3,0.3H5
				c-0.2,0-0.4-0.2-0.4-0.3L4.5,9.1z M5,12.3c0-0.2,0.1-0.3,0.3-0.3h1.9c0.2,0,0.4,0.2,0.4,0.3l0.1,1.1c0,0.2-0.1,0.3-0.3,0.3H5.5
				c-0.2,0-0.4-0.2-0.4-0.3L5,12.3z M8.3,5.6c0-0.2,0.1-0.3,0.3-0.3h2.6c0.2,0,0.4,0.2,0.4,0.4V7c0,0.2-0.2,0.4-0.4,0.4H8.8
				C8.6,7.4,8.4,7.2,8.4,7L8.3,5.6z M8.6,9.1c0-0.2,0.1-0.3,0.3-0.3h2.2c0.2,0,0.4,0.2,0.4,0.4v1.1c0,0.2-0.2,0.4-0.4,0.4h-2
				c-0.2,0-0.4-0.2-0.4-0.3L8.6,9.1z M9,12.3C9,12.1,9.1,12,9.3,12h1.8c0.2,0,0.4,0.2,0.4,0.4v1.1c0,0.2-0.2,0.4-0.4,0.4H9.5
				c-0.2,0-0.4-0.2-0.4-0.3L9,12.3z M12.9,5.6c0-0.2,0.2-0.4,0.4-0.4H16c0.2,0,0.3,0.2,0.3,0.3L16.2,7c0,0.2-0.2,0.3-0.4,0.3h-2.5
				c-0.2,0-0.4-0.2-0.4-0.4V5.6z M12.9,9.1c0-0.2,0.2-0.4,0.4-0.4h2.4c0.2,0,0.3,0.2,0.3,0.3l-0.1,1.1c0,0.2-0.2,0.3-0.4,0.3h-2.2
				c-0.2,0-0.4-0.2-0.4-0.4V9.1z M12.9,13.4v-1.1c0-0.2,0.2-0.4,0.4-0.4h2c0.2,0,0.3,0.2,0.3,0.3l-0.1,1.1c0,0.2-0.2,0.3-0.4,0.3
				h-1.8C13.1,13.7,12.9,13.6,12.9,13.4L12.9,13.4z M16.9,13.4l0.1-1.1c0-0.2,0.2-0.3,0.4-0.3h1.7c0.2,0,0.3,0.2,0.3,0.3l-0.3,1.1
				c0,0.2-0.2,0.3-0.4,0.3h-1.4C17,13.7,16.9,13.6,16.9,13.4z M17.5,10.5c-0.2,0-0.3-0.2-0.3-0.3l0.1-1.1c0-0.2,0.2-0.3,0.4-0.3h2.1
				c0.2,0,0.3,0.2,0.3,0.3l-0.3,1.1c0,0.2-0.2,0.3-0.4,0.3H17.5z M20.2,7.4h-2.3c-0.2,0-0.3-0.2-0.3-0.3l0.2-1.4
				c0-0.2,0.2-0.3,0.4-0.3h2.6c0.2,0,0.3,0.2,0.3,0.3L20.7,7C20.6,7.2,20.4,7.4,20.2,7.4z M2.1,4.6l1.6,9.9c0.1,0.4,0.4,0.7,0.8,0.7
				h14.9c0.4,0,0.8-0.3,0.9-0.7l2.2-9.5c0.1-0.4,0-1.1-0.7-1.1h-19C2.4,3.9,2.1,4.2,2.1,4.6z"/>
			<circle class="st0" cx="18.6" cy="20.4" r="2.1"/>
			<circle class="st3" cx="18.6" cy="20.4" r="1.1"/>
			<circle class="st0" cx="6" cy="20.4" r="2.1"/>
			<path class="st3" d="M4.9,20.4c0,0.6,0.5,1.1,1.1,1.1C6.6,21.4,7,21,7,20.4c0-0.6-0.5-1.1-1.1-1.1C5.4,19.3,4.9,19.8,4.9,20.4z"
				/>
			<path class="st0" d="M0.4,0l1.1,0v2.1H0.4C0.2,2.1,0,2,0,1.8l0-1.4C0,0.2,0.2,0,0.4,0z"/>
			<path class="st2" d="M18.6,17.6c1.6,0,2.8,1.3,2.8,2.8h-5.6C15.8,18.8,17.1,17.6,18.6,17.6z"/>
			<path class="st2" d="M6,17.6c1.6,0,2.8,1.3,2.8,2.8H3.2C3.2,18.8,4.4,17.6,6,17.6z"/>
		</g>
	</g>
</g>
</svg>
