<?xml version="1.0" encoding="utf-8"?>
<!-- Generator: Adobe Illustrator 24.3.0, SVG Export Plug-In . SVG Version: 6.00 Build 0)  -->
<svg version="1.1" id="Capa_1" xmlns="http://www.w3.org/2000/svg" xmlns:xlink="http://www.w3.org/1999/xlink" x="0px" y="0px"
	 viewBox="0 0 19 17" style="enable-background:new 0 0 19 17;" xml:space="preserve">
<style type="text/css">
	.st0{fill:#C52D2E;}
</style>
<g id="Carro_de_la_compra_-_Gris">
	<g id="Carro_de_la_compra">
		<path class="st0" d="M17.2,11.2l-11.9,0v-0.6l10.9-1.5c0.6-0.1,1-0.6,1-1.2V4.2c0-0.6-0.5-1.1-1.1-1.1H5.3V2.3
			c0-0.8-0.6-1.4-1.3-1.4H1.8C1.4,0.9,1,1.3,1,1.8s0.4,0.9,0.8,0.9h1.7v8.9c0,0.8,0.6,1.4,1.3,1.4h12.2c0.5,0,0.8-0.4,0.8-0.9
			C18,11.6,17.6,11.2,17.2,11.2z M10,8.7L8,9V4.4H10V8.7z M11,4.4h2.1v3.9L11,8.6V4.4z M16,7.9l-2,0.3V4.4h2V7.9z M7,4.4v4.8
			L5.3,9.4v-5H7z"/>
		<path class="st0" d="M7.4,13c-0.9,0-1.7,0.7-1.7,1.7c0,0.9,0.7,1.7,1.7,1.7c0.9,0,1.7-0.7,1.7-1.7C9.1,13.7,8.4,13,7.4,13z"/>
		<path class="st0" d="M15.5,13c-0.9,0-1.7,0.7-1.7,1.7c0,0.9,0.7,1.7,1.7,1.7c0.9,0,1.7-0.7,1.7-1.7C17.2,13.7,16.5,13,15.5,13z"/>
	</g>
</g>
</svg>
