<?xml version="1.0" encoding="utf-8"?>
<!-- Generator: Adobe Illustrator 24.3.0, SVG Export Plug-In . SVG Version: 6.00 Build 0)  -->
<svg version="1.1" id="Capa_2_1_" xmlns="http://www.w3.org/2000/svg" xmlns:xlink="http://www.w3.org/1999/xlink" x="0px" y="0px"
	 viewBox="0 0 158 160.3" style="enable-background:new 0 0 158 160.3;" xml:space="preserve">
<style type="text/css">
	.st0{fill:none;stroke:#E50914;stroke-width:4;stroke-linecap:round;stroke-linejoin:round;}
	.st1{fill:#E50914;stroke:#E50914;stroke-miterlimit:10;}
</style>
<g>
	<path class="st0" d="M2.1,158.3c0,0-1.8-20.3,11.1-20.3c0,0,14.1-1.4,13.8,20.2l0-26.2c0,0,0.3-9.7,11.6-9.7
		c12.9,0,12.8,9.7,12.8,9.7v26.2"/>
	<path class="st0" d="M51.4,132.1l0.3-69.7c0,0,0.1-10.4,10.9-10.4c12.9,0,12.8,10.3,12.8,10.3c0,1.4,0.8,96,0.8,96"/>
	<path class="st0" d="M86,2c-6,13.6-11.9,16.8-17.3,26.6c-5,9,1.1,17.4,17.7,25.4c0,0-6.8,6.8-10.3,6.9c0,0,0.7,5.9,3.8,8
		c2.5,1.7,14,10,14,10l6-0.1"/>
	<path class="st0" d="M73.3,45.8c0,0,1.7-5.8,7.4-5.8c6.4-0.1,16.4,8.1,16.4,8.1"/>
	<path class="st0" d="M100.3,35.1c0,0,8.6-1.3,8.7,11.3"/>
	<path class="st0" d="M93.9,78.8c0,0-11.4,9.9-11.4,15.4c0,3.2,0.8,3.4,1.5,4.6c1.6,2.5,3.8,2.8,6,1.5c2-1.1,5-1.8,5.8-1.5
		c2.2,0.8,4.7,5.4,4.7,7.9c0,1.5-2.4,14.7,3.5,23.5c2.9,4.1,7.9,6.1,12.8,5.2c3.8-0.6,33.9-4.4,39.2-6.7"/>
	<circle class="st1" cx="108.8" cy="79.2" r="2.6"/>
</g>
</svg>
