<?xml version="1.0" encoding="utf-8"?>
<!-- Generator: Adobe Illustrator 23.0.0, SVG Export Plug-In . SVG Version: 6.00 Build 0)  -->
<svg version="1.1" id="Capa_1" xmlns="http://www.w3.org/2000/svg" xmlns:xlink="http://www.w3.org/1999/xlink" x="0px" y="0px"
	 viewBox="0 0 15 18" style="enable-background:new 0 0 15 18;" xml:space="preserve">
<style type="text/css">
	.st0{fill:#CCFF00;}
	.st1{fill:#FF6003;}
</style>
<path class="st0" d="M15,0.4l-1.8,1c0.5,1.6,0.9,3.2,1.3,4.9c0.3,1.3,0.4,2.6,0.4,3.9c0.1,2.1-0.5,4.1-1.9,5.7
	c-1.4,1.4-3.3,2.1-5.2,2c-0.9,0-1.8-0.1-2.7-0.3c-1-0.2-1.9-0.6-2.8-1L0.6,18l2.5-5c0.6,0.7,1.4,1.3,2.3,1.8
	c0.8,0.4,1.6,0.6,2.5,0.6c0.9,0,1.8-0.4,2.5-1.1c0.7-0.8,1-1.7,1-2.7c0-0.4,0-0.8-0.1-1.2C11,10,10.9,9.6,10.7,9.2
	c-0.6,1-1.4,1.8-2.4,2.5c-0.9,0.5-1.9,0.8-3,0.8c-1.5,0-2.8-0.6-3.8-1.7C0.5,9.6-0.1,8.1,0,6.6c-0.1-1.7,0.5-3.4,1.6-4.7
	C2.6,0.7,4.1,0,5.7,0c0.9,0,1.8,0.2,2.6,0.7c0.9,0.5,1.8,1.2,2.5,2L9.7,0L15,0.4z M6.9,2.5C6.7,2.7,6.5,2.9,6.4,3.2
	C6.3,3.5,6.2,3.8,6.3,4.1c0,0.7,0.2,1.3,0.6,1.8c0.4,0.5,1,0.7,1.6,0.8c0.3,0,0.6-0.1,0.9-0.2c0.3-0.1,0.6-0.3,0.8-0.6
	C9.8,5.1,9.3,4.3,8.7,3.7C8.2,3.2,7.6,2.7,6.9,2.5z"/>
<circle class="st1" cx="7.9" cy="4.7" r="1"/>
<path class="st1" d="M4.7,10.8c-2.5,0-3.3-4-3.3-4.1l0.3-0.1c0,0,0.7,3.9,3,3.9c1.4,0,2.8-0.8,3.6-1.9l0.3,0.2
	C7.7,10,6.3,10.7,4.7,10.8z"/>
</svg>
