<?xml version="1.0" encoding="utf-8"?>
<!-- Generator: Adobe Illustrator 24.3.0, SVG Export Plug-In . SVG Version: 6.00 Build 0)  -->
<svg version="1.1" id="Capa_1" xmlns="http://www.w3.org/2000/svg" xmlns:xlink="http://www.w3.org/1999/xlink" x="0px" y="0px"
	 viewBox="0 0 85 85" style="enable-background:new 0 0 85 85;" xml:space="preserve">
<style type="text/css">
	.st0{fill:#DADADA;}
	.st1{fill-rule:evenodd;clip-rule:evenodd;fill:#E50914;}
</style>
<circle class="st0" cx="42.5" cy="42.5" r="42.5"/>
<path class="st1" d="M47.4,74.5c-1.5,1.1-11.8,0.5-13.4,0.5c-0.9-0.6-0.5-20.6-0.5-29.7c0-0.8,0.3-1.7-0.3-2.4
	c-1.9-0.4-4,0.4-5.8-0.5c0-3.1,0-6.2-0.1-9.3c-0.1-1.4,0.5-1.7,1.7-1.6s2.4,0,3.6,0c0.6,0,1.3,0,1.1-0.9c-0.3-3.5-0.3-7,0.1-10.4
	c0.2-0.7,0.4-1.5,0.6-2.2c1.7-4.9,4.7-7.4,10-7.9c3.9-0.4,7.9-0.1,11.9-0.2c0.8,0,1.4,0.1,1.4,1c0,3.2,0,6.4-0.1,9.6
	c0,0.3-0.4,0.6-0.6,0.9c-2.5,0.6-5.1,0.3-7.7,0.2c-0.9,0.2-1.5,0.9-1.7,1.8c0,2.5,0,5.1,0,7.7c2.3,0.9,4.7,0.2,7.1,0.3
	c3.1,0.1,3.1,0,2.7,3.2c-0.1,0.8-0.4,7-1.3,7.9c-2.7,0.6-5.4,0-8.1,0.3c-0.7,0.7-0.3,1.6-0.3,2.4C47.7,54.1,48,73.7,47.4,74.5z"/>
</svg>
