<svg id="Capa_1" data-name="Capa 1" xmlns="http://www.w3.org/2000/svg" viewBox="0 0 1500 50"><defs><style>.cls-1{fill:#f5f5f5;}.cls-2{fill:#b4d8da;}.cls-3{fill:#facfc9;}.cls-4{fill:#f24162;}.cls-5{fill:#cca6a1;}.cls-6{fill:#f5e4ac;}.cls-7{fill:#bcdbf1;}.cls-8{fill:#ecbbf2;}.cls-9{fill:#ffff9d;}.cls-10{fill:#cde855;}.cls-11{fill:#cafcd8;}.cls-12{fill:#ff974f;}.cls-13{fill:#c4d7ed;}.cls-14{fill:#dddcc5;}.cls-15{fill:#f9e4ad;}.cls-16{fill:#f6b1c3;}.cls-17{fill:#ff9666;}.cls-18{fill:#dfd3b6;}.cls-19{fill:#f2385a;}.cls-20{fill:#ff9e9d;}.cls-21{fill:#e0ffb3;}.cls-22{fill:#f29d35;}</style></defs><rect class="cls-1" width="1500" height="50"/><circle class="cls-2" cx="50.65" cy="25" r="17.5"/><circle class="cls-2" cx="117.74" cy="25" r="17.5"/><circle class="cls-2" cx="117.74" cy="25" r="17.5"/><circle class="cls-3" cx="117.74" cy="25" r="17.5"/><circle class="cls-4" cx="185.74" cy="25" r="17.5"/><circle class="cls-5" cx="253.74" cy="25" r="17.5"/><circle class="cls-6" cx="321.74" cy="25" r="17.5"/><circle class="cls-7" cx="389.74" cy="25" r="17.5"/><circle class="cls-8" cx="457.74" cy="25" r="17.5"/><circle class="cls-9" cx="525.74" cy="25" r="17.5"/><circle class="cls-10" cx="593.74" cy="25" r="17.5"/><circle class="cls-11" cx="661.74" cy="25" r="17.5"/><circle class="cls-12" cx="729.74" cy="25" r="17.5"/><circle class="cls-13" cx="797.74" cy="25" r="17.5"/><circle class="cls-14" cx="865.74" cy="25" r="17.5"/><circle class="cls-15" cx="933.74" cy="25" r="17.5"/><circle class="cls-16" cx="1001.74" cy="25" r="17.5"/><circle class="cls-17" cx="1069.74" cy="25" r="17.5"/><circle class="cls-18" cx="1137.74" cy="25" r="17.5"/><circle class="cls-19" cx="1205.74" cy="25" r="17.5"/><circle class="cls-20" cx="1273.74" cy="25" r="17.5"/><circle class="cls-21" cx="1341.74" cy="25" r="17.5"/><circle class="cls-22" cx="1409.74" cy="25" r="17.5"/></svg>